<svg width="247" height="156" viewBox="0 0 247 156" fill="none" xmlns="http://www.w3.org/2000/svg">
    <mask id="mask0_9653_87954" style="mask-type:alpha" maskUnits="userSpaceOnUse" x="0" y="0" width="247" height="156">
        <rect width="247" height="156" fill="white"/>
    </mask>
    <g mask="url(#mask0_9653_87954)">
        <path d="M48.0317 113.858C60.8079 133.521 86.8613 128.506 98.291 123.541C126.944 113.858 146.296 128.233 169.218 130.616C197.87 133.595 215.25 119.444 211.492 80.7145C207.734 41.9849 145.732 56.8809 122.716 62.8393C99.7002 68.7977 74.3356 53.1569 53.6683 60.6049C33.0009 68.0529 32.0615 89.2797 48.0317 113.858Z"
              stroke="#2BDC83" stroke-width="0.9" stroke-linecap="round" stroke-linejoin="round"/>
        <mask id="mask1_9653_87954" style="mask-type:luminance" maskUnits="userSpaceOnUse" x="86" y="71" width="68"
              height="66">
            <path d="M97.8795 71.426C111.546 74.9015 124.813 83.8061 137.678 98.1399C147.177 108.723 151.654 113.286 153.146 116.496C154.686 119.808 152.037 123.419 149.097 123.419C148.021 123.419 146.344 122.501 144.067 120.666L143.989 120.603L144.087 120.709C147.29 124.191 148.621 126.661 147.037 128.504C144.666 131.263 141.339 129.634 137.678 126.128C133.322 121.956 127.921 116.434 122.99 111.724C121.266 110.078 120.869 109.715 121.397 110.248L121.867 110.72C123.648 112.492 128.63 117.377 133.799 122.486L134.489 123.168C134.834 123.509 135.18 123.851 135.524 124.193L136.213 124.875C137.358 126.01 138.49 127.134 139.574 128.215L140.219 128.859C140.538 129.178 140.852 129.492 141.161 129.801L141.77 130.412C142.071 130.714 142.365 131.009 142.652 131.299C143.566 132.745 140.906 134.422 137.678 134.422C135.941 134.422 134.07 133.558 132.142 132.178L131.966 132.049L132.107 132.185C133.032 133.069 133.927 133.852 134.743 134.422C135.71 135.096 134.514 136.031 131.722 136.57C128.652 137.164 119.24 133.509 107.689 120.065C99.9891 111.102 92.9681 101.595 86.6262 91.5454L97.8795 71.426ZM120.907 120.884L120.996 120.973L120.874 120.835C119.484 119.268 118.148 117.786 116.898 116.535C114.16 113.796 116.172 116.087 120.907 120.884Z"
                  fill="white"/>
        </mask>
        <g mask="url(#mask1_9653_87954)">
            <path d="M86.6262 71.426H153.599V136.631H86.6262V71.426Z" fill="white"/>
        </g>
        <path d="M97.8795 71.426C111.546 74.9015 124.813 83.8061 137.678 98.1399C147.177 108.723 151.654 113.286 153.146 116.496C154.686 119.808 152.037 123.419 149.097 123.419C146.241 123.419 139.155 116.956 127.838 104.028C132.313 108.927 135.886 112.652 138.558 115.203C145.442 121.776 149.352 125.811 147.037 128.504C144.666 131.263 141.339 129.634 137.678 126.128C133.322 121.956 127.921 116.434 122.99 111.724C115.497 104.567 133.082 121.661 142.652 131.299C143.566 132.745 140.906 134.422 137.678 134.422C131.272 134.422 123.046 122.686 116.898 116.535C113.291 112.926 117.929 118.049 126.175 126.128C128.779 128.679 132.16 132.617 134.743 134.422C135.71 135.096 134.514 136.031 131.722 136.57C128.652 137.164 119.24 133.509 107.689 120.065C99.9891 111.102 92.9681 101.595 86.6262 91.5454L97.8795 71.426Z"
              stroke="#738997" stroke-width="0.9" stroke-linejoin="round"/>
        <mask id="mask2_9653_87954" style="mask-type:luminance" maskUnits="userSpaceOnUse" x="104" y="71" width="78"
              height="46">
            <path d="M123.393 71.9047C128.214 70.5432 142.117 72.0862 165.101 76.5335L181.175 98.1828L153.833 116.872L129.847 91.202C125.368 87.0535 122.739 86.1956 121.959 88.6285C120.79 92.2779 116.535 107.02 109.679 107.603C102.822 108.185 103.674 99.6673 106.225 88.6285C108.776 77.5898 116.161 73.9468 123.393 71.9047Z"
                  fill="white"/>
        </mask>
        <g mask="url(#mask2_9653_87954)">
            <path d="M104.354 71.426H181.175V116.872H104.354V71.426Z" fill="white"/>
        </g>
        <path d="M165.101 76.5335C142.117 72.0862 128.214 70.5432 123.393 71.9047C116.161 73.9468 108.776 77.5898 106.225 88.6285C103.674 99.6673 102.822 108.185 109.679 107.603C116.535 107.02 120.79 92.2779 121.959 88.6285C122.739 86.1956 125.368 87.0535 129.847 91.202L153.833 116.872L181.175 98.1828L165.101 76.5335Z"
              stroke="#738997" stroke-width="0.9" stroke-linejoin="round"/>
        <mask id="mask3_9653_87954" style="mask-type:luminance" maskUnits="userSpaceOnUse" x="159" y="67" width="21"
              height="50">
            <path d="M167.528 67.4741L179.206 113.6L173.604 116.872L159.508 71.0395L167.528 67.4741Z" fill="white"/>
        </mask>
        <g mask="url(#mask3_9653_87954)">
            <path d="M159.508 67.4741H179.206V116.872H159.508V67.4741Z" fill="white"/>
        </g>
        <path d="M167.528 67.4741L159.508 71.0395L173.604 116.872L179.206 113.6L167.528 67.4741Z" stroke="#738997"
              stroke-width="0.9" stroke-linejoin="round"/>
        <mask id="mask4_9653_87954" style="mask-type:luminance" maskUnits="userSpaceOnUse" x="165" y="50" width="25"
              height="71">
            <path d="M189.421 50.7142L179.781 120.824L165.417 68.5845L189.421 50.7142Z" fill="white"/>
        </mask>
        <g mask="url(#mask4_9653_87954)">
            <path d="M165.417 50.7142H193.153V120.824H165.417V50.7142Z" fill="white"/>
        </g>
        <path d="M193.153 110.976L179.781 120.824L165.417 68.5845L189.421 50.7142" stroke="#738997" stroke-width="0.9"
              stroke-linecap="round" stroke-linejoin="round"/>
        <mask id="mask5_9653_87954" style="mask-type:luminance" maskUnits="userSpaceOnUse" x="78" y="67" width="21"
              height="50">
            <path d="M90.425 67.4741L78.7473 113.6L84.3492 116.872L98.4451 71.0395L90.425 67.4741Z" fill="white"/>
        </mask>
        <g mask="url(#mask5_9653_87954)">
            <path d="M98.4451 67.4741H78.7473V116.872H98.4451V67.4741Z" fill="white"/>
        </g>
        <path d="M90.425 67.4741L98.4451 71.0395L84.3492 116.872L78.7473 113.6L90.425 67.4741Z" stroke="#738997"
              stroke-width="0.9" stroke-linejoin="round"/>
        <mask id="mask6_9653_87954" style="mask-type:luminance" maskUnits="userSpaceOnUse" x="70" y="51" width="23"
              height="70">
            <path d="M70.2367 51.7878L78.4352 120.824L92.7983 68.5845L70.2367 51.7878Z" fill="white"/>
        </mask>
        <g mask="url(#mask6_9653_87954)">
            <path d="M92.7983 45.7931H51.785V120.824H92.7983V45.7931Z" fill="white"/>
        </g>
        <path d="M51.785 101.198L78.4352 120.823L92.7983 68.5845L70.2367 51.7878M66.2388 48.1871L63.0232 45.7931"
              stroke="#738997" stroke-width="0.9" stroke-linecap="round" stroke-linejoin="round"/>
        <mask id="mask7_9653_87954" style="mask-type:luminance" maskUnits="userSpaceOnUse" x="141" y="93" width="13"
              height="11">
            <path d="M141.911 103.19L153.73 93.4244C151.811 100.719 147.872 103.974 141.911 103.19Z" fill="white"/>
        </mask>
        <g mask="url(#mask7_9653_87954)">
            <path d="M141.911 93.4244H153.73V103.304H141.911V93.4244Z" fill="white"/>
        </g>
        <path d="M153.73 93.4244C151.811 100.719 147.872 103.974 141.911 103.19" stroke="#738997" stroke-width="0.9"
              stroke-miterlimit="10"/>
        <mask id="mask8_9653_87954" style="mask-type:luminance" maskUnits="userSpaceOnUse" x="66" y="91" width="9"
              height="9">
            <path d="M70.868 91.1849C73.0438 91.1849 74.8076 92.9542 74.8076 95.1367C74.8076 97.3193 73.0438 99.0885 70.868 99.0885C68.6923 99.0885 66.9285 97.3193 66.9285 95.1367C66.9285 92.9542 68.6923 91.1849 70.868 91.1849Z"
                  fill="white"/>
        </mask>
        <g mask="url(#mask8_9653_87954)">
            <path d="M66.9285 91.1849H74.8076V99.0885H66.9285V91.1849Z" fill="#00E078"/>
        </g>
        <path d="M70.868 99.0885C73.0438 99.0885 74.8076 97.3193 74.8076 95.1367C74.8076 92.9542 73.0438 91.1849 70.868 91.1849C68.6923 91.1849 66.9285 92.9542 66.9285 95.1367C66.9285 97.3193 68.6923 99.0885 70.868 99.0885Z"
              stroke="#738997" stroke-width="0.9" stroke-miterlimit="10"/>
        <path d="M195.497 95.868L185.115 103.04" stroke="#738997" stroke-width="0.9" stroke-linecap="round"
              stroke-linejoin="round"/>
    </g>
</svg>
