<svg width="247" height="156" viewBox="0 0 247 156" fill="none" xmlns="http://www.w3.org/2000/svg">
    <path d="M48.0317 100.64C60.8079 125.477 86.8613 119.143 98.291 112.871C126.944 100.64 146.296 118.798 169.218 121.808C197.87 125.571 215.25 107.696 211.492 58.7745C207.734 9.85286 145.732 28.6689 122.716 36.1953C99.7002 43.7217 74.3356 23.9649 53.6683 33.3729C33.0009 42.7809 32.0615 69.5937 48.0317 100.64Z"
          stroke="#2BDC83" stroke-width="0.9" stroke-linecap="round" stroke-linejoin="round"/>
    <g clip-path="url(#clip0_9653_87960)">
        <mask id="mask0_9653_87960" style="mask-type:luminance" maskUnits="userSpaceOnUse" x="27" y="0" width="1017"
              height="771">
            <path d="M1043.79 0.851562V770H27.6167V0.851562H1043.79Z" fill="white"/>
        </mask>
        <g mask="url(#mask0_9653_87960)">
            <mask id="mask1_9653_87960" style="mask-type:luminance" maskUnits="userSpaceOnUse" x="51" y="0" width="144"
                  height="144">
                <path d="M194.212 0.853271V143.832H51.2334V0.853271H194.212Z" fill="white"/>
            </mask>
            <g mask="url(#mask1_9653_87960)">
                <mask id="mask2_9653_87960" style="mask-type:luminance" maskUnits="userSpaceOnUse" x="86" y="48"
                      width="76" height="51">
                    <path d="M86.3411 96.1163L86.3476 96.025C86.4855 94.7544 88.5403 93.7524 91.0722 93.7524L92.8098 93.7524C92.8082 93.7174 92.8082 93.6823 92.8082 93.6471L92.8082 52.9418C92.8083 50.2493 94.9188 48.0817 97.5405 48.0817H149.367C151.988 48.0817 154.099 50.2493 154.099 52.9418V92.7701C154.099 92.8054 154.097 92.8404 154.097 92.8755H154.971C157.24 92.8755 160.443 94.5566 160.91 95.6376C160.918 95.6569 160.926 95.6763 160.934 95.6957C160.949 95.7347 160.962 95.774 160.973 95.8136C160.978 95.8334 160.983 95.8533 160.988 95.8733C161.007 95.9531 161.017 96.0342 161.02 96.1163C161.015 96.26 160.986 96.4005 160.934 96.5368C160.926 96.5563 160.918 96.5757 160.91 96.595C160.835 96.7687 160.723 96.9354 160.579 97.0926C160.563 97.1101 160.547 97.1274 160.53 97.1446C160.463 97.2135 160.389 97.2806 160.31 97.3456C160.27 97.3781 160.229 97.41 160.186 97.4414C160.058 97.5357 159.918 97.6251 159.765 97.7089C159.715 97.7368 159.663 97.7641 159.609 97.7908C159.556 97.8174 159.501 97.8435 159.446 97.8688C159.334 97.9196 159.218 97.9676 159.097 98.0128C158.976 98.058 158.851 98.1004 158.722 98.1398C158.399 98.238 158.052 98.3173 157.684 98.3745C157.611 98.3859 157.537 98.3965 157.462 98.4062C157.087 98.4545 156.694 98.4801 156.289 98.4801H151.187C151.022 98.4978 150.854 98.5072 150.684 98.5072H97.5407C97.3707 98.5072 97.2027 98.4978 97.0374 98.4801H91.0722C88.4801 98.48 86.3879 97.4298 86.3411 96.1163Z"
                          fill="white"/>
                </mask>
                <g mask="url(#mask2_9653_87960)">
                    <path d="M86.3398 48.0817H161.021V98.5072H86.3398V48.0817Z" fill="#DFE5E8"/>
                </g>
                <mask id="mask3_9653_87960" style="mask-type:luminance" maskUnits="userSpaceOnUse" x="95" y="48"
                      width="54" height="41">
                    <path d="M145.72 48.0817C147.124 48.0817 148.255 49.2058 148.255 50.6022V86.4122C148.255 87.8086 147.124 88.9327 145.72 88.9327H97.8108C96.4066 88.9327 95.2761 87.8086 95.2761 86.4122V50.6022C95.2761 49.2058 96.4066 48.0817 97.8108 48.0817H145.72Z"
                          fill="white"/>
                </mask>
                <g mask="url(#mask3_9653_87960)">
                    <path d="M95.2761 48.0817H148.255V88.9327H95.2761V48.0817Z" fill="#A5B3BC"/>
                </g>
                <mask id="mask4_9653_87960" style="mask-type:luminance" maskUnits="userSpaceOnUse" x="93" y="46"
                      width="58" height="47">
                    <path d="M146.372 46.8043C148.829 46.8043 150.808 48.7799 150.808 51.2338V88.3323C150.808 90.7862 148.829 92.7618 146.372 92.7618H97.7963C95.3391 92.7618 93.3608 90.7862 93.3608 88.3323V51.2338C93.3608 48.7799 95.3391 46.8043 97.7963 46.8043H146.372Z"
                          fill="white"/>
                </mask>
                <g mask="url(#mask4_9653_87960)">
                    <path d="M93.3608 46.8043H150.808V92.7618H93.3608V46.8043Z" fill="#EFF2F3"/>
                </g>
                <path d="M97.7966 46.8063C95.3393 46.8063 93.3611 48.7818 93.3611 51.2358V88.3342C93.3611 90.7882 95.3393 92.7637 97.7966 92.7637H146.372C148.83 92.7637 150.808 90.7882 150.808 88.3342V51.2358C150.808 48.7818 148.83 46.8063 146.372 46.8063H97.7966Z"
                      stroke="#738997" stroke-width="0.9" stroke-miterlimit="10"/>
                <mask id="mask5_9653_87960" style="mask-type:luminance" maskUnits="userSpaceOnUse" x="97" y="52"
                      width="50" height="34">
                    <path d="M144.425 52.5581C145.482 52.5581 146.339 53.4154 146.339 54.473V83.1964C146.339 84.254 145.482 85.1113 144.425 85.1113H99.7438C98.6862 85.1113 97.8289 84.254 97.8289 83.1964V54.473C97.8289 53.4154 98.6862 52.5581 99.7438 52.5581H144.425Z"
                          fill="white"/>
                </mask>
                <g mask="url(#mask5_9653_87960)">
                    <path d="M97.8289 52.5581H146.339V85.1113H97.8289V52.5581Z" fill="white"/>
                </g>
                <path d="M136.816 50.571L139.804 50.5571C139.836 50.5571 139.868 50.5561 139.898 50.5547C139.904 50.5547 139.907 50.5541 139.911 50.5538C139.913 50.5538 139.916 50.5534 139.918 50.5533C139.942 50.552 139.966 50.5507 139.989 50.5486C139.993 50.5482 139.997 50.5477 140.001 50.5473C140.025 50.545 140.049 50.5424 140.072 50.5392C140.08 50.538 140.087 50.5367 140.095 50.5355C140.114 50.5326 140.132 50.5296 140.151 50.5262C140.16 50.5244 140.169 50.5224 140.178 50.5205C140.193 50.5172 140.209 50.514 140.224 50.5103C140.234 50.5078 140.244 50.5049 140.254 50.5021C140.269 50.4982 140.282 50.4947 140.294 50.4909C140.305 50.4877 140.313 50.4845 140.322 50.4815C140.335 50.4772 140.349 50.4729 140.361 50.4681C140.369 50.4651 140.377 50.4617 140.385 50.4585C140.399 50.4532 140.41 50.4484 140.422 50.4433C140.431 50.4389 140.44 50.4346 140.448 50.4304C140.451 50.4292 140.453 50.428 140.456 50.4269C140.464 50.4229 140.472 50.4191 140.48 50.415C140.489 50.4103 140.497 50.4057 140.505 50.4011C140.515 50.3956 140.525 50.3901 140.534 50.3844C140.542 50.3795 140.55 50.3744 140.558 50.3693L140.559 50.3684C140.567 50.3629 140.576 50.3573 140.584 50.3515C140.592 50.3457 140.6 50.3396 140.608 50.3335C140.617 50.3275 140.625 50.3213 140.632 50.3151C140.639 50.3095 140.646 50.3038 140.653 50.298L140.655 50.2957C140.663 50.2895 140.67 50.2833 140.677 50.2769L140.678 50.276C140.684 50.2703 140.69 50.2645 140.696 50.2587C140.704 50.2512 140.712 50.2437 140.719 50.2361C140.725 50.2303 140.73 50.2244 140.735 50.2185C140.741 50.2126 140.746 50.2066 140.751 50.2006C140.753 50.1982 140.756 50.1958 140.758 50.1934C140.763 50.1869 140.768 50.1807 140.773 50.1744C140.78 50.1663 140.787 50.158 140.793 50.1496C140.798 50.1431 140.803 50.1364 140.808 50.1298C140.815 50.1202 140.821 50.1109 140.828 50.1015C140.833 50.0952 140.836 50.0895 140.84 50.0837C140.842 50.0814 140.843 50.079 140.845 50.0767C140.849 50.0696 140.854 50.0625 140.858 50.0553C140.863 50.0477 140.867 50.0403 140.872 50.0329C140.877 50.0245 140.882 50.0159 140.887 50.0073C140.892 49.9975 140.896 49.99 140.9 49.9825C140.902 49.9791 140.904 49.9756 140.906 49.9722C140.907 49.97 140.908 49.9677 140.909 49.9655C140.919 49.9459 140.929 49.9256 140.938 49.9055C140.943 49.895 140.948 49.8843 140.953 49.8738C140.956 49.8656 140.96 49.8576 140.964 49.8493C140.971 49.8314 140.978 49.8143 140.985 49.7971C140.99 49.7839 140.995 49.7706 141 49.7574C141.003 49.7507 141.006 49.7442 141.008 49.7375C141.014 49.7207 141.021 49.7038 141.027 49.6867C141.034 49.6654 141.041 49.6444 141.049 49.6231C141.055 49.6047 141.06 49.5865 141.066 49.5682C141.074 49.5471 141.079 49.5283 141.085 49.5094C141.11 49.4322 141.133 49.3542 141.158 49.2762C141.164 49.2571 141.169 49.2406 141.175 49.2241C141.177 49.2144 141.18 49.2061 141.183 49.1977C141.187 49.1855 141.191 49.1734 141.195 49.1613C141.201 49.1427 141.208 49.1241 141.214 49.1056C141.222 49.0839 141.229 49.0627 141.237 49.0415L141.238 49.0399C141.245 49.0226 141.251 49.0055 141.258 48.9884C141.266 48.968 141.275 48.9478 141.284 48.9276C141.293 48.9046 141.303 48.8816 141.314 48.8591C141.316 48.854 141.318 48.8494 141.32 48.8449L141.321 48.8436C141.326 48.8346 141.33 48.8259 141.335 48.817C141.339 48.808 141.344 48.799 141.348 48.79C141.353 48.782 141.357 48.7741 141.361 48.7661C141.367 48.7558 141.373 48.7454 141.379 48.7352C141.383 48.7283 141.387 48.7215 141.391 48.7147L141.392 48.7131C141.398 48.7031 141.404 48.6931 141.41 48.6832C141.415 48.6753 141.419 48.6684 141.424 48.6614C141.43 48.6518 141.437 48.6422 141.443 48.6327C141.448 48.6253 141.454 48.6179 141.459 48.6105L141.46 48.6093C141.465 48.6022 141.471 48.5952 141.476 48.5882C141.477 48.5866 141.478 48.585 141.48 48.5834C141.485 48.576 141.491 48.5686 141.497 48.5613C141.498 48.5604 141.5 48.5585 141.5 48.5585C141.506 48.5506 141.513 48.5427 141.519 48.5349C141.525 48.5285 141.53 48.5221 141.536 48.5158C141.54 48.5119 141.543 48.5086 141.546 48.5054C141.551 48.4999 141.556 48.4945 141.561 48.4891C141.568 48.4821 141.575 48.4751 141.582 48.4682C141.589 48.4609 141.597 48.4537 141.604 48.4466C141.612 48.4392 141.62 48.4319 141.628 48.4247L141.629 48.4241C141.637 48.4173 141.645 48.4105 141.653 48.4038C141.662 48.3968 141.67 48.3904 141.678 48.384C141.687 48.377 141.696 48.3702 141.705 48.3634C141.714 48.357 141.722 48.3508 141.731 48.3446C141.736 48.3408 141.741 48.3375 141.746 48.3341C141.75 48.3313 141.755 48.3286 141.759 48.3258C141.768 48.3198 141.777 48.3137 141.787 48.3079C141.798 48.3013 141.808 48.2953 141.819 48.2894C141.828 48.284 141.838 48.2786 141.847 48.2734C141.859 48.2674 141.87 48.2616 141.882 48.2559L141.883 48.2553C141.892 48.2507 141.901 48.246 141.911 48.2416C141.919 48.2381 141.926 48.2352 141.933 48.2322C141.937 48.2301 141.942 48.228 141.947 48.2259C141.958 48.221 141.97 48.216 141.982 48.2112C141.993 48.2069 142.004 48.2029 142.015 48.1988C142.028 48.194 142.041 48.1891 142.055 48.1845C142.066 48.1807 142.078 48.1771 142.089 48.1735L142.091 48.173C142.104 48.1688 142.118 48.1647 142.131 48.1608C142.144 48.1572 142.158 48.1538 142.171 48.1504C142.186 48.1467 142.199 48.1434 142.212 48.1403C142.227 48.1366 142.242 48.1338 142.257 48.1307L142.26 48.1303C142.273 48.1276 142.286 48.1247 142.299 48.1223L142.302 48.1218C142.319 48.1189 142.335 48.1165 142.352 48.1139C142.364 48.1119 142.376 48.1098 142.389 48.108H142.39C142.408 48.1055 142.427 48.1036 142.445 48.1015L142.448 48.1011C142.462 48.0997 142.475 48.0979 142.489 48.0966C142.504 48.0952 142.519 48.0942 142.534 48.093H142.537C142.555 48.0916 142.573 48.09 142.592 48.089C142.609 48.088 142.627 48.0875 142.645 48.0868C142.648 48.0868 142.65 48.0865 142.653 48.0865C142.668 48.086 142.683 48.0852 142.698 48.0848C142.715 48.0844 142.732 48.0848 142.749 48.0844C142.77 48.0844 142.79 48.0837 142.812 48.0837H142.809C142.888 48.0846 142.971 48.0883 143.058 48.0946L145.489 48.1354C145.549 48.1363 145.609 48.1386 145.667 48.1416C145.73 48.1448 145.793 48.1492 145.855 48.1547C145.906 48.1593 145.956 48.1649 146.006 48.171C146.028 48.1737 146.049 48.1766 146.07 48.1795C146.098 48.1832 146.125 48.1872 146.152 48.1914C146.177 48.1952 146.203 48.199 146.227 48.2032C146.268 48.2101 146.308 48.2175 146.348 48.2255C146.357 48.2272 146.366 48.2286 146.375 48.2304C146.385 48.2325 146.395 48.235 146.405 48.2371C146.408 48.2376 146.41 48.2383 146.413 48.2389C146.463 48.2496 146.513 48.2609 146.563 48.2732C146.614 48.2861 146.666 48.2998 146.716 48.3143C146.766 48.3287 146.815 48.3437 146.863 48.3596C146.913 48.376 146.962 48.3932 147.011 48.4111C147.21 48.4855 147.398 48.5734 147.571 48.6729C147.7 48.7476 147.822 48.8287 147.935 48.9156C147.973 48.9446 148.01 48.9742 148.045 49.0044C148.117 49.0648 148.184 49.1277 148.248 49.1928C148.406 49.3554 148.538 49.5318 148.64 49.7182C148.681 49.7928 148.717 49.869 148.749 49.9466C148.78 50.0242 148.807 50.1032 148.828 50.1832C148.839 50.2233 148.848 50.2636 148.856 50.3042C148.864 50.3447 148.871 50.3855 148.876 50.4266C148.882 50.4677 148.886 50.509 148.889 50.5505C148.89 50.5713 148.891 50.592 148.892 50.6128C148.893 50.6337 148.893 50.6546 148.893 50.6756V87.7936C148.893 87.8145 148.893 87.8353 148.892 87.8561C148.891 87.8769 148.89 87.8977 148.889 87.9184C148.887 87.939 148.885 87.9596 148.883 87.9801C148.881 88.0007 148.878 88.0211 148.875 88.0415C148.87 88.0788 148.863 88.1157 148.855 88.1524C148.853 88.1603 148.852 88.1673 148.85 88.1743C148.842 88.2105 148.833 88.2465 148.822 88.2822C148.811 88.3216 148.798 88.3607 148.784 88.3993C148.755 88.4767 148.721 88.5525 148.682 88.6267C148.663 88.6638 148.642 88.7004 148.62 88.7366C148.598 88.7728 148.575 88.8085 148.55 88.8437C148.502 88.9142 148.448 88.9828 148.39 89.0493C148.361 89.0825 148.331 89.1152 148.299 89.1473C148.296 89.151 148.292 89.1544 148.288 89.158C148.262 89.1846 148.236 89.2109 148.208 89.2367C148.198 89.2461 148.187 89.2552 148.177 89.2645C148.155 89.2841 148.133 89.3037 148.111 89.3229C148.098 89.3338 148.085 89.3446 148.072 89.3555C148.051 89.3727 148.03 89.3897 148.008 89.4064C147.994 89.4175 147.979 89.4284 147.964 89.4393C147.943 89.4552 147.922 89.4709 147.9 89.4864C147.885 89.4972 147.869 89.508 147.854 89.5186C147.832 89.5338 147.809 89.5486 147.786 89.5634C147.77 89.5737 147.754 89.5841 147.738 89.5943C147.713 89.6099 147.687 89.625 147.661 89.6401C147.647 89.6485 147.633 89.657 147.619 89.6651C147.579 89.6881 147.537 89.7106 147.496 89.7324C147.406 89.7787 147.313 89.8222 147.218 89.8625C147.175 89.8804 147.131 89.8975 147.087 89.9143C147.073 89.9197 147.059 89.9249 147.044 89.9302C147.013 89.9418 146.981 89.9531 146.949 89.9641C146.934 89.9691 146.919 89.9742 146.904 89.9791C146.859 89.994 146.813 90.0086 146.767 90.0221C146.721 90.0357 146.674 90.0482 146.626 90.0603C146.611 90.0644 146.594 90.0683 146.578 90.0723C146.544 90.0806 146.51 90.0886 146.476 90.0962C146.46 90.0998 146.444 90.1033 146.428 90.1067C146.379 90.117 146.33 90.1268 146.281 90.1356C146.169 90.1554 146.055 90.1716 145.94 90.1838C145.888 90.1892 145.835 90.1937 145.782 90.1975C145.767 90.1986 145.751 90.1996 145.735 90.2005C145.697 90.203 145.657 90.2052 145.618 90.2067C145.602 90.2073 145.585 90.2079 145.569 90.2086C145.515 90.2103 145.462 90.2114 145.407 90.2114H98.7617C98.3996 90.2114 98.0507 90.1735 97.7229 90.1031C97.6739 90.0925 97.6255 90.081 97.5775 90.0691C97.5628 90.0654 97.5481 90.0616 97.5335 90.0578C97.4986 90.0487 97.464 90.0392 97.4296 90.0294C97.4152 90.0253 97.4008 90.0213 97.3865 90.017C97.3398 90.0032 97.2935 89.9889 97.2479 89.9737C97.2022 89.9585 97.1571 89.9424 97.1125 89.9258C97.0995 89.921 97.0867 89.9159 97.0738 89.911C97.0401 89.8981 97.0068 89.8849 96.9738 89.8712C96.962 89.8663 96.9502 89.8615 96.9385 89.8566C96.8971 89.839 96.856 89.8209 96.8158 89.8021C96.7211 89.758 96.6297 89.7108 96.5419 89.6607C96.496 89.6344 96.4513 89.6072 96.4074 89.5794C96.3929 89.5702 96.379 89.5605 96.3647 89.5511C96.336 89.5323 96.3074 89.5134 96.2797 89.4939C96.2472 89.4711 96.2153 89.448 96.1842 89.4243C96.1803 89.4214 96.1765 89.4185 96.1727 89.4155C96.1381 89.3889 96.1042 89.362 96.0713 89.3343C96.0698 89.3333 96.0684 89.3319 96.067 89.3306C96.034 89.3028 96.002 89.2744 95.9708 89.2456C95.9689 89.2439 95.967 89.2421 95.9651 89.2404C95.935 89.2124 95.9059 89.1839 95.8776 89.1549C95.8731 89.1504 95.8686 89.1458 95.8641 89.1412C95.8369 89.113 95.8104 89.0843 95.7849 89.0553C95.7809 89.0508 95.777 89.0463 95.7731 89.0418C95.7477 89.0125 95.723 88.9829 95.6994 88.9527C95.6958 88.9481 95.6923 88.9434 95.6887 88.9387C95.6645 88.9074 95.6409 88.8758 95.6187 88.8437C95.5966 88.8119 95.5758 88.7795 95.5558 88.7469C95.55 88.7376 95.5445 88.7282 95.539 88.7188C95.5241 88.6938 95.5098 88.6686 95.4962 88.6432C95.4915 88.6345 95.4867 88.6258 95.4821 88.617C95.4645 88.5831 95.4476 88.5489 95.4321 88.5142C95.4152 88.4763 95.3996 88.438 95.3853 88.3993C95.3568 88.322 95.3336 88.2431 95.316 88.1629C95.3101 88.1358 95.305 88.1085 95.3003 88.0811C95.2994 88.0752 95.2984 88.0691 95.2975 88.0631C95.2931 88.0356 95.2892 88.008 95.2861 87.9803C95.2831 87.9525 95.281 87.9245 95.2793 87.8965C95.2788 87.8904 95.2787 87.8844 95.2785 87.8784C95.2771 87.8504 95.2761 87.8222 95.2761 87.794V50.676C95.2761 50.6551 95.2767 50.6343 95.2771 50.6135C95.2779 50.5896 95.2794 50.5659 95.2813 50.5422C95.2819 50.5348 95.2824 50.5274 95.2833 50.52C95.2848 50.5039 95.2864 50.4878 95.2883 50.4718C95.2893 50.4633 95.2904 50.4547 95.2915 50.4462C95.2938 50.4291 95.2964 50.4121 95.2992 50.3951C95.3001 50.3892 95.3011 50.3832 95.3022 50.3773C95.3061 50.3547 95.3105 50.3322 95.3153 50.3097L95.316 50.3069C95.3203 50.2869 95.3251 50.267 95.3302 50.2471C95.3369 50.2208 95.3444 50.1948 95.3524 50.1688C95.3545 50.1617 95.3568 50.1546 95.359 50.1475C95.3673 50.1217 95.3759 50.096 95.3853 50.0705C95.3996 50.0318 95.4152 49.9935 95.4321 49.9556C95.4478 49.9205 95.4649 49.8858 95.4828 49.8514C95.4852 49.8469 95.4874 49.8424 95.4898 49.8379C95.507 49.8054 95.5253 49.7732 95.5444 49.7414C95.5483 49.7351 95.5522 49.7288 95.5561 49.7225C95.5759 49.6903 95.5963 49.6584 95.618 49.627C95.6189 49.6255 95.6201 49.6242 95.6211 49.6227C95.6424 49.5921 95.6648 49.5619 95.6879 49.532C95.6919 49.5268 95.6959 49.5216 95.6999 49.5163C95.7236 49.4863 95.7481 49.4566 95.7735 49.4274C95.7778 49.4224 95.7822 49.4174 95.7866 49.4125C95.8131 49.3825 95.8403 49.3528 95.8685 49.3236C95.87 49.322 95.8718 49.3205 95.8733 49.3189C95.901 49.2905 95.9296 49.2626 95.959 49.2351C95.9628 49.2316 95.9666 49.2279 95.9704 49.2243C96.0001 49.1969 96.0307 49.17 96.062 49.1435C96.0677 49.1387 96.0734 49.1339 96.0791 49.1291C96.1107 49.1027 96.1431 49.0767 96.1763 49.0512C96.1799 49.0485 96.1835 49.0459 96.187 49.0432C96.2191 49.0188 96.2519 48.9949 96.2854 48.9715C96.2899 48.9684 96.2943 48.9652 96.2989 48.962C96.3338 48.9379 96.3695 48.9144 96.4059 48.8913C96.4123 48.8872 96.4187 48.8831 96.4252 48.8791C96.4611 48.8566 96.4975 48.8347 96.5347 48.8133C96.542 48.8091 96.5495 48.805 96.5568 48.8008C96.592 48.7809 96.6277 48.7615 96.6641 48.7425C96.6684 48.7402 96.6726 48.7378 96.677 48.7356C96.7165 48.7152 96.7569 48.6955 96.7976 48.6762C96.8053 48.6726 96.8129 48.669 96.8206 48.6654C96.8607 48.6468 96.9013 48.6287 96.9426 48.6113C96.9511 48.6077 96.9597 48.6042 96.9683 48.6006C97.0067 48.5846 97.0456 48.5692 97.085 48.5542C97.0905 48.5521 97.0959 48.5498 97.1015 48.5478C97.1452 48.5313 97.189 48.5159 97.2331 48.501C97.2417 48.4981 97.2502 48.4953 97.2588 48.4924C97.303 48.4778 97.3476 48.4638 97.3928 48.4505C97.401 48.4481 97.4093 48.4458 97.4175 48.4434C97.4648 48.4298 97.5124 48.4166 97.5607 48.4044C97.721 48.3638 97.8869 48.3311 98.0574 48.3071C98.1142 48.2991 98.1716 48.292 98.2294 48.2859C98.3451 48.2737 98.4626 48.2655 98.5817 48.2613C98.6413 48.2592 98.7012 48.2581 98.7616 48.2581H101.321C101.37 48.2568 101.417 48.2562 101.463 48.2561C101.554 48.2561 101.641 48.2584 101.722 48.2632C101.845 48.2703 101.956 48.2827 102.057 48.2999C102.091 48.3056 102.123 48.3118 102.155 48.3186C102.186 48.3253 102.217 48.3326 102.246 48.3403C102.272 48.3472 102.297 48.3545 102.321 48.362C102.33 48.3648 102.339 48.3676 102.347 48.3705C102.364 48.3758 102.38 48.3814 102.395 48.3871C102.403 48.39 102.411 48.3928 102.419 48.3957C102.441 48.4044 102.463 48.4133 102.484 48.4226C102.507 48.4324 102.528 48.4427 102.548 48.4533C102.556 48.457 102.563 48.4609 102.57 48.4648C102.583 48.4718 102.596 48.4789 102.608 48.4863C102.616 48.4908 102.623 48.4956 102.631 48.5003C102.642 48.5073 102.654 48.5145 102.665 48.5218C102.671 48.5265 102.678 48.5312 102.685 48.536C102.696 48.5439 102.707 48.552 102.717 48.5601C102.723 48.5646 102.729 48.5692 102.735 48.5737C102.745 48.5822 102.755 48.591 102.765 48.5998C102.771 48.6045 102.776 48.6093 102.782 48.6141C102.792 48.6233 102.801 48.6327 102.81 48.6421C102.815 48.6467 102.82 48.6512 102.824 48.6558C102.838 48.6698 102.85 48.684 102.863 48.6985C102.876 48.7139 102.888 48.7297 102.9 48.7457C102.914 48.7643 102.927 48.7834 102.939 48.8028C102.942 48.8076 102.945 48.8126 102.948 48.8175C102.957 48.8323 102.966 48.8472 102.974 48.8624C102.977 48.8682 102.981 48.874 102.984 48.8798C102.992 48.8951 102.999 48.9105 103.007 48.9261C103.009 48.9311 103.012 48.9361 103.014 48.9411C103.023 48.9617 103.032 48.9826 103.041 49.0037C103.055 49.0401 103.068 49.0771 103.08 49.1147C103.104 49.1899 103.123 49.2672 103.141 49.3452C103.158 49.4232 103.174 49.5019 103.191 49.5802C103.208 49.6585 103.225 49.7363 103.246 49.8123C103.257 49.8503 103.268 49.8879 103.281 49.9248C103.293 49.9617 103.307 49.9981 103.323 50.0337C103.338 50.0693 103.355 50.1041 103.374 50.138C103.393 50.172 103.413 50.2049 103.436 50.2368C103.448 50.2528 103.46 50.2684 103.473 50.2838C103.484 50.2977 103.496 50.3113 103.508 50.3247C103.512 50.3285 103.516 50.3323 103.519 50.3361C103.529 50.3461 103.539 50.3558 103.549 50.3654C103.553 50.369 103.556 50.3727 103.56 50.3763C103.574 50.3891 103.588 50.4017 103.603 50.414C103.653 50.4544 103.709 50.4916 103.773 50.5253C103.794 50.5365 103.816 50.5473 103.839 50.5577C103.885 50.5784 103.935 50.5974 103.988 50.6146C104.015 50.6232 104.043 50.6312 104.071 50.6388C104.1 50.6465 104.13 50.6536 104.16 50.6602C104.222 50.6734 104.288 50.6846 104.358 50.6936C104.39 50.6977 104.423 50.7011 104.457 50.7043C104.465 50.7052 104.474 50.7058 104.483 50.7066C104.51 50.7089 104.538 50.711 104.566 50.7127C104.575 50.7133 104.584 50.7138 104.593 50.7143C104.63 50.7162 104.667 50.7179 104.706 50.7188C104.748 50.7198 104.792 50.7202 104.837 50.7201L131.552 50.5955"
                      stroke="#738997" stroke-width="0.9" stroke-miterlimit="10"/>
                <mask id="mask6_9653_87960" style="mask-type:luminance" maskUnits="userSpaceOnUse" x="84" y="94"
                      width="76" height="3">
                    <path d="M158.809 94.0463C158.809 94.0463 160.17 96.5995 157.059 96.5995H86.4714C83.36 96.5995 84.7212 94.0463 84.7212 94.0463H158.809Z"
                          fill="white"/>
                </mask>
                <g mask="url(#mask6_9653_87960)">
                    <path d="M84.4248 94.0463H159.106V96.5995H84.4248V94.0463Z" fill="#DFE5E9"/>
                </g>
                <path d="M158.809 94.0446C158.809 94.0446 160.17 96.5977 157.059 96.5977H121.765H86.4714C83.36 96.5977 84.7212 94.0446 84.7212 94.0446H158.809Z"
                      stroke="#738997" stroke-width="0.9" stroke-linecap="round" stroke-linejoin="round"/>
                <mask id="mask7_9653_87960" style="mask-type:luminance" maskUnits="userSpaceOnUse" x="84" y="88"
                      width="76" height="7">
                    <path d="M150.299 88.2985L158.099 93.2391C158.099 93.2391 160.073 94.4016 158.494 94.5953C158.004 94.6554 154.288 94.6782 149.394 94.6811L146.942 94.681C145.089 94.6799 143.13 94.6767 141.155 94.6721L140.077 94.6694C131.447 94.6471 122.841 94.6012 121.859 94.5958H121.673C120.69 94.6012 112.084 94.6471 103.455 94.6694L102.377 94.6721C100.402 94.6767 98.4421 94.6799 96.5893 94.681L94.1376 94.6811C89.2432 94.6782 85.5275 94.6554 85.0378 94.5953C83.4581 94.4016 85.4328 93.2391 85.4328 93.2391L93.2325 88.2985H150.299Z"
                          fill="white"/>
                </mask>
                <g mask="url(#mask7_9653_87960)">
                    <path d="M84.4253 88.2985H159.106V94.6814H84.4253V88.2985Z" fill="white"/>
                </g>
                <path d="M158.493 94.5953C160.073 94.4016 158.098 93.2391 158.098 93.2391L150.299 88.2985H121.765H93.2322L85.4325 93.2391C85.4325 93.2391 83.4579 94.4016 85.0376 94.5953C86.6173 94.7891 121.765 94.5953 121.765 94.5953C121.765 94.5953 156.914 94.7891 158.493 94.5953Z"
                      stroke="#738997" stroke-width="0.9" stroke-linecap="round" stroke-linejoin="round"/>
                <mask id="mask8_9653_87960" style="mask-type:luminance" maskUnits="userSpaceOnUse" x="113" y="90"
                      width="19" height="3">
                    <path d="M130.257 90.8492L131.021 92.7641H113.148L113.958 90.9061L130.257 90.8492Z" fill="white"/>
                </mask>
                <g mask="url(#mask8_9653_87960)">
                    <path d="M113.148 90.8492H131.021V92.7641H113.148V90.8492Z" fill="#EFF2F3"/>
                </g>
                <mask id="mask9_9653_87960" style="mask-type:luminance" maskUnits="userSpaceOnUse" x="131" y="69"
                      width="14" height="4">
                    <path d="M143.275 69.1471C143.912 69.1471 144.425 69.7933 144.425 70.5961L144.425 70.8859C144.425 71.6887 143.912 72.335 143.275 72.3351L132.809 72.3361C132.172 72.3361 131.659 71.6898 131.659 70.887L131.659 70.5972C131.659 69.7944 132.172 69.1481 132.809 69.1481L143.275 69.1471Z"
                          fill="white"/>
                </mask>
                <g mask="url(#mask9_9653_87960)">
                    <path d="M131.659 69.1443L144.425 69.1474L144.425 72.3389L131.659 72.3358L131.659 69.1443Z"
                          fill="#DFE5E8"/>
                </g>
                <mask id="mask10_9653_87960" style="mask-type:luminance" maskUnits="userSpaceOnUse" x="115" y="69"
                      width="14" height="4">
                    <path d="M127.317 69.7896C127.954 69.7896 128.467 70.3066 128.467 70.9488L128.467 71.1807C128.467 71.8229 127.954 72.3399 127.317 72.3399L116.851 72.3402C116.214 72.3402 115.701 71.8232 115.701 71.1809L115.701 70.9491C115.701 70.3069 116.214 69.7898 116.851 69.7898L127.317 69.7896Z"
                          fill="white"/>
                </mask>
                <g mask="url(#mask10_9653_87960)">
                    <path d="M115.702 69.7867L128.468 69.7898L128.467 72.343L115.701 72.3399L115.702 69.7867Z"
                          fill="#2BDC83" fill-opacity="0.500273"/>
                </g>
                <mask id="mask11_9653_87960" style="mask-type:luminance" maskUnits="userSpaceOnUse" x="99" y="69"
                      width="14" height="4">
                    <path d="M111.36 69.1471C111.997 69.1471 112.51 69.7933 112.51 70.5961L112.51 70.8859C112.51 71.6887 111.997 72.335 111.36 72.3351L100.894 72.3361C100.257 72.3361 99.7437 71.6898 99.7437 70.887L99.7438 70.5972C99.7438 69.7944 100.257 69.1481 100.894 69.1481L111.36 69.1471Z"
                          fill="white"/>
                </mask>
                <g mask="url(#mask11_9653_87960)">
                    <path d="M99.7441 69.1443L112.51 69.1474L112.509 72.3389L99.7434 72.3358L99.7441 69.1443Z"
                          fill="#DFE5E8"/>
                </g>
                <mask id="mask12_9653_87960" style="mask-type:luminance" maskUnits="userSpaceOnUse" x="131" y="74"
                      width="14" height="4">
                    <path d="M143.275 74.2544C143.912 74.2544 144.425 74.9006 144.425 75.7034L144.425 75.9932C144.425 76.796 143.912 77.4423 143.275 77.4424L132.809 77.4434C132.172 77.4434 131.659 76.7971 131.659 75.9943L131.659 75.7045C131.659 74.9017 132.172 74.2554 132.809 74.2554L143.275 74.2544Z"
                          fill="white"/>
                </mask>
                <g mask="url(#mask12_9653_87960)">
                    <path d="M131.659 74.2516L144.425 74.2547L144.425 77.4462L131.659 77.4431L131.659 74.2516Z"
                          fill="#DFE5E8"/>
                </g>
                <mask id="mask13_9653_87960" style="mask-type:luminance" maskUnits="userSpaceOnUse" x="116" y="74"
                      width="14" height="4">
                    <path d="M127.956 74.8989C128.593 74.8989 129.106 75.416 129.106 76.0582L129.106 76.2901C129.106 76.9323 128.593 77.4493 127.956 77.4493L117.49 77.4496C116.853 77.4496 116.34 76.9326 116.34 76.2903L116.34 76.0585C116.34 75.4162 116.853 74.8992 117.49 74.8992L127.956 74.8989Z"
                          fill="white"/>
                </mask>
                <g mask="url(#mask13_9653_87960)">
                    <path d="M116.34 74.8961L129.106 74.8992L129.106 77.4524L116.34 77.4493L116.34 74.8961Z"
                          fill="#DFE5E8"/>
                </g>
                <mask id="mask14_9653_87960" style="mask-type:luminance" maskUnits="userSpaceOnUse" x="99" y="74"
                      width="14" height="4">
                    <path d="M111.36 74.2544C111.997 74.2544 112.51 74.9006 112.51 75.7034L112.51 75.9932C112.51 76.796 111.997 77.4423 111.36 77.4424L100.894 77.4434C100.257 77.4434 99.7437 76.7971 99.7437 75.9943L99.7438 75.7045C99.7438 74.9017 100.257 74.2554 100.894 74.2554L111.36 74.2544Z"
                          fill="white"/>
                </mask>
                <g mask="url(#mask14_9653_87960)">
                    <path d="M99.7441 74.2516L112.51 74.2547L112.509 77.4462L99.7434 77.4431L99.7441 74.2516Z"
                          fill="#DFE5E8"/>
                </g>
                <mask id="mask15_9653_87960" style="mask-type:luminance" maskUnits="userSpaceOnUse" x="131" y="79"
                      width="14" height="4">
                    <path d="M143.275 79.3696C143.912 79.3696 144.425 80.0159 144.425 80.8186L144.425 81.1085C144.425 81.9113 143.912 82.5576 143.275 82.5576L132.809 82.5586C132.172 82.5586 131.659 81.9124 131.659 81.1096L131.659 80.8198C131.659 80.017 132.172 79.3707 132.809 79.3706L143.275 79.3696Z"
                          fill="white"/>
                </mask>
                <g mask="url(#mask15_9653_87960)">
                    <path d="M131.659 79.3668L144.425 79.3699L144.425 82.5614L131.659 82.5583L131.659 79.3668Z"
                          fill="#DFE5E8"/>
                </g>
                <mask id="mask16_9653_87960" style="mask-type:luminance" maskUnits="userSpaceOnUse" x="115" y="80"
                      width="14" height="3">
                    <path d="M127.317 80.0025C127.954 80.0025 128.467 80.5195 128.467 81.1617L128.467 81.3936C128.467 82.0358 127.954 82.5528 127.317 82.5528L116.851 82.5531C116.214 82.5531 115.701 82.0361 115.701 81.3938L115.701 81.162C115.701 80.5198 116.214 80.0027 116.851 80.0027L127.317 80.0025Z"
                          fill="white"/>
                </mask>
                <g mask="url(#mask16_9653_87960)">
                    <path d="M115.702 79.9996L128.468 80.0027L128.467 82.5559L115.701 82.5528L115.702 79.9996Z"
                          fill="#2BDC83" fill-opacity="0.500273"/>
                </g>
                <mask id="mask17_9653_87960" style="mask-type:luminance" maskUnits="userSpaceOnUse" x="99" y="79"
                      width="14" height="4">
                    <path d="M111.36 79.3696C111.997 79.3696 112.51 80.0159 112.51 80.8186L112.51 81.1085C112.51 81.9113 111.997 82.5576 111.36 82.5576L100.894 82.5586C100.257 82.5586 99.7437 81.9124 99.7437 81.1096L99.7438 80.8198C99.7438 80.017 100.257 79.3707 100.894 79.3706L111.36 79.3696Z"
                          fill="white"/>
                </mask>
                <g mask="url(#mask17_9653_87960)">
                    <path d="M99.7441 79.3668L112.51 79.3699L112.509 82.5614L99.7434 82.5583L99.7441 79.3668Z"
                          fill="#DFE5E8"/>
                </g>
                <mask id="mask18_9653_87960" style="mask-type:luminance" maskUnits="userSpaceOnUse" x="125" y="78"
                      width="6" height="6">
                    <path d="M128.148 78.7266C128.741 78.7266 129.309 78.962 129.728 79.381C130.147 79.7999 130.382 80.3682 130.382 80.9607C130.382 81.5532 130.147 82.1214 129.728 82.5404C129.309 82.9593 128.741 83.1947 128.148 83.1947C127.556 83.1947 126.988 82.9593 126.569 82.5404C126.15 82.1214 125.914 81.5532 125.914 80.9607C125.914 79.7268 126.914 78.7266 128.148 78.7266Z"
                          fill="white"/>
                </mask>
                <g mask="url(#mask18_9653_87960)">
                    <path d="M125.915 78.7261L130.383 78.7272L130.382 83.1952L125.914 83.1942L125.915 78.7261Z"
                          fill="#2BDC83"/>
                </g>
                <mask id="mask19_9653_87960" style="mask-type:luminance" maskUnits="userSpaceOnUse" x="125" y="68"
                      width="6" height="5">
                    <path d="M128.148 68.5157C128.741 68.5157 129.309 68.751 129.728 69.17C130.147 69.589 130.382 70.1572 130.382 70.7497C130.382 71.3422 130.147 71.9105 129.728 72.3294C129.309 72.7484 128.741 72.9838 128.148 72.9838C127.556 72.9838 126.988 72.7484 126.569 72.3294C126.15 71.9105 125.914 71.3422 125.914 70.7497C125.914 69.5159 126.914 68.5157 128.148 68.5157Z"
                          fill="white"/>
                </mask>
                <g mask="url(#mask19_9653_87960)">
                    <path d="M125.915 68.5151L130.383 68.5162L130.382 72.9843L125.914 72.9832L125.915 68.5151Z"
                          fill="#2BDC83"/>
                </g>
                <mask id="mask20_9653_87960" style="mask-type:luminance" maskUnits="userSpaceOnUse" x="115" y="63"
                      width="18" height="4">
                    <path d="M132.162 63.4762V66.6677H115.566V63.4762H132.162Z" fill="white"/>
                </mask>
                <g mask="url(#mask20_9653_87960)">
                    <path d="M116.571 63.7452C116.505 63.7452 116.447 63.7582 116.396 63.7841C116.345 63.8093 116.303 63.846 116.268 63.8942C116.234 63.9423 116.208 64.0005 116.19 64.0687C116.172 64.1369 116.163 64.2136 116.163 64.2988C116.163 64.4137 116.178 64.5119 116.206 64.5934C116.235 64.6742 116.279 64.7361 116.339 64.7791C116.399 64.8213 116.477 64.8425 116.571 64.8425C116.637 64.8425 116.703 64.8351 116.769 64.8202C116.836 64.8054 116.908 64.7843 116.986 64.7569V65.0459C116.914 65.0756 116.843 65.0967 116.774 65.1093C116.704 65.1226 116.626 65.1293 116.539 65.1293C116.372 65.1293 116.234 65.0948 116.126 65.0259C116.018 64.9562 115.939 64.8591 115.887 64.7346C115.835 64.6094 115.809 64.4634 115.809 64.2966C115.809 64.1736 115.825 64.0609 115.859 63.9586C115.892 63.8564 115.941 63.7678 116.006 63.6929C116.07 63.6181 116.15 63.5603 116.245 63.5195C116.339 63.4788 116.448 63.4584 116.571 63.4584C116.652 63.4584 116.733 63.4688 116.814 63.4895C116.895 63.5095 116.973 63.5373 117.047 63.5729L116.936 63.853C116.875 63.8241 116.814 63.7989 116.753 63.7774C116.691 63.7559 116.631 63.7452 116.571 63.7452ZM118.656 63.4817V64.5334C118.656 64.6453 118.631 64.7465 118.581 64.8369C118.533 64.9266 118.458 64.9977 118.358 65.0504C118.259 65.103 118.133 65.1293 117.982 65.1293C117.767 65.1293 117.603 65.0744 117.491 64.9648C117.378 64.8551 117.322 64.7098 117.322 64.529V63.4817H117.665V64.4767C117.665 64.6109 117.693 64.705 117.748 64.7591C117.802 64.8132 117.884 64.8402 117.991 64.8402C118.067 64.8402 118.128 64.8273 118.175 64.8013C118.222 64.7754 118.257 64.7354 118.279 64.6813C118.301 64.6272 118.312 64.5582 118.312 64.4745V63.4817H118.656ZM120.013 64.6557C120.013 64.752 119.99 64.8358 119.943 64.9069C119.897 64.9781 119.828 65.0329 119.739 65.0715C119.65 65.11 119.542 65.1293 119.414 65.1293C119.358 65.1293 119.303 65.1256 119.248 65.1182C119.195 65.1108 119.144 65.1 119.094 65.0859C119.045 65.0711 118.998 65.053 118.954 65.0315V64.7113C119.031 64.7454 119.111 64.7761 119.194 64.8036C119.277 64.831 119.359 64.8447 119.441 64.8447C119.497 64.8447 119.542 64.8373 119.576 64.8225C119.611 64.8076 119.636 64.7873 119.652 64.7613C119.668 64.7354 119.675 64.7057 119.675 64.6724C119.675 64.6316 119.662 64.5968 119.634 64.5679C119.607 64.539 119.569 64.5119 119.521 64.4867C119.473 64.4615 119.42 64.4345 119.36 64.4056C119.322 64.3878 119.281 64.3663 119.236 64.3411C119.192 64.3151 119.15 64.2836 119.11 64.2466C119.069 64.2095 119.037 64.1647 119.011 64.1121C118.985 64.0587 118.973 63.995 118.973 63.9209C118.973 63.8238 118.995 63.7408 119.039 63.6718C119.084 63.6029 119.147 63.5503 119.23 63.514C119.313 63.4769 119.41 63.4584 119.523 63.4584C119.608 63.4584 119.688 63.4684 119.764 63.4884C119.841 63.5077 119.922 63.5358 120.006 63.5729L119.894 63.8408C119.82 63.8104 119.752 63.7871 119.693 63.7708C119.634 63.7537 119.573 63.7452 119.512 63.7452C119.469 63.7452 119.432 63.7522 119.402 63.7663C119.371 63.7797 119.349 63.7989 119.333 63.8241C119.317 63.8486 119.31 63.8771 119.31 63.9097C119.31 63.9483 119.321 63.9809 119.343 64.0076C119.366 64.0335 119.4 64.0587 119.445 64.0832C119.491 64.1076 119.548 64.1362 119.616 64.1688C119.699 64.208 119.77 64.2492 119.829 64.2922C119.888 64.3344 119.934 64.3844 119.966 64.4422C119.997 64.4993 120.013 64.5705 120.013 64.6557ZM120.935 65.1071H120.59V63.7685H120.149V63.4817H121.376V63.7685H120.935V65.1071ZM123.102 64.2922C123.102 64.4174 123.086 64.5316 123.055 64.6346C123.024 64.7369 122.976 64.825 122.913 64.8992C122.85 64.9733 122.77 65.0303 122.673 65.0704C122.575 65.1096 122.461 65.1293 122.328 65.1293C122.195 65.1293 122.08 65.1096 121.983 65.0704C121.886 65.0303 121.806 64.9733 121.742 64.8992C121.679 64.825 121.632 64.7365 121.601 64.6335C121.57 64.5304 121.554 64.4159 121.554 64.2899C121.554 64.1217 121.582 63.9753 121.636 63.8508C121.692 63.7256 121.777 63.6285 121.892 63.5595C122.007 63.4906 122.153 63.4562 122.33 63.4562C122.507 63.4562 122.651 63.4906 122.765 63.5595C122.879 63.6285 122.963 63.7256 123.018 63.8508C123.074 63.9761 123.102 64.1232 123.102 64.2922ZM121.915 64.2922C121.915 64.4056 121.93 64.5034 121.958 64.5857C121.987 64.6672 122.031 64.7302 122.092 64.7747C122.153 64.8184 122.232 64.8402 122.328 64.8402C122.426 64.8402 122.505 64.8184 122.566 64.7747C122.627 64.7302 122.671 64.6672 122.698 64.5857C122.726 64.5034 122.74 64.4056 122.74 64.2922C122.74 64.1217 122.709 63.9876 122.645 63.8897C122.581 63.7919 122.476 63.743 122.33 63.743C122.233 63.743 122.154 63.7652 122.092 63.8097C122.031 63.8534 121.987 63.9164 121.958 63.9987C121.93 64.0802 121.915 64.178 121.915 64.2922ZM124.127 65.1071L123.735 63.8319H123.725C123.727 63.8623 123.729 63.9083 123.732 63.9698C123.736 64.0305 123.739 64.0954 123.742 64.1643C123.745 64.2332 123.746 64.2955 123.746 64.3511V65.1071H123.439V63.4817H123.908L124.292 64.7246H124.299L124.707 63.4817H125.176V65.1071H124.855V64.3377C124.855 64.2866 124.856 64.2277 124.857 64.161C124.859 64.0943 124.862 64.0309 124.865 63.9709C124.868 63.9101 124.87 63.8645 124.872 63.8341H124.862L124.442 65.1071H124.127ZM126.178 63.4817H126.684C126.9 63.4817 127.064 63.5121 127.175 63.5729C127.286 63.6337 127.342 63.7404 127.342 63.8931C127.342 63.9546 127.332 64.0102 127.312 64.0598C127.293 64.1095 127.264 64.1502 127.227 64.1821C127.19 64.214 127.145 64.2347 127.092 64.2444V64.2555C127.146 64.2666 127.195 64.2859 127.238 64.3133C127.282 64.34 127.317 64.3792 127.343 64.4311C127.37 64.4823 127.383 64.5505 127.383 64.6357C127.383 64.7343 127.359 64.8187 127.311 64.8892C127.262 64.9596 127.194 65.0137 127.104 65.0515C127.015 65.0885 126.909 65.1071 126.786 65.1071H126.178V63.4817ZM126.522 64.1254H126.723C126.823 64.1254 126.892 64.1098 126.93 64.0787C126.969 64.0468 126.988 64.0002 126.988 63.9386C126.988 63.8764 126.965 63.8319 126.919 63.8052C126.874 63.7778 126.802 63.7641 126.704 63.7641H126.522V64.1254ZM126.522 64.3989V64.8225H126.747C126.851 64.8225 126.923 64.8024 126.964 64.7624C127.005 64.7224 127.025 64.6687 127.025 64.6012C127.025 64.5612 127.016 64.526 126.998 64.4956C126.98 64.4652 126.95 64.4415 126.908 64.4245C126.867 64.4074 126.809 64.3989 126.736 64.3989H126.522ZM127.708 65.1071V63.4817H128.052V65.1071H127.708ZM129.81 64.2788C129.81 64.4619 129.775 64.6149 129.704 64.738C129.635 64.8603 129.533 64.9525 129.401 65.0148C129.268 65.0763 129.108 65.1071 128.922 65.1071H128.461V63.4817H128.972C129.142 63.4817 129.29 63.5121 129.415 63.5729C129.54 63.6329 129.637 63.7222 129.706 63.8408C129.775 63.9586 129.81 64.1047 129.81 64.2788ZM129.452 64.2877C129.452 64.1677 129.434 64.0691 129.398 63.992C129.364 63.9142 129.312 63.8567 129.243 63.8197C129.175 63.7826 129.09 63.7641 128.989 63.7641H128.806V64.8225H128.954C129.122 64.8225 129.247 64.7776 129.328 64.6879C129.411 64.5983 129.452 64.4649 129.452 64.2877Z"
                          fill="#738897"/>
                </g>
                <mask id="mask21_9653_87960" style="mask-type:luminance" maskUnits="userSpaceOnUse" x="158" y="22"
                      width="26" height="26">
                    <path d="M170.914 22.5582C177.789 22.5582 183.361 28.1309 183.361 35.005C183.361 41.8792 177.789 47.4518 170.914 47.4518C164.04 47.4518 158.468 41.8792 158.468 35.005C158.468 28.1309 164.04 22.5582 170.914 22.5582Z"
                          fill="white"/>
                </mask>
                <g mask="url(#mask21_9653_87960)">
                    <path d="M158.468 22.5582H183.361V47.4518H158.468V22.5582Z" fill="#F6FAFB"/>
                </g>
                <path d="M170.914 47.4499C177.789 47.4499 183.361 41.8773 183.361 35.0031C183.361 28.1289 177.789 22.5563 170.914 22.5563C164.04 22.5563 158.468 28.1289 158.468 35.0031C158.468 41.8773 164.04 47.4499 170.914 47.4499Z"
                      stroke="#738897" stroke-width="0.9" stroke-linecap="round" stroke-linejoin="round"/>
                <path d="M167.305 41.1776C167.871 40.9556 168.202 40.5429 168.297 39.9398C167.263 39.1493 166.585 37.8299 166.263 35.9814C165.856 33.6508 166.01 31.8685 166.725 30.6344C166.136 30.469 165.669 29.9938 165.506 29.2559C165.431 28.9144 165.6 28.2089 166.013 27.1395C166.9 28.4434 168.032 28.6202 169.409 27.6699C171.475 26.2444 174.853 27.4125 175.782 28.9493C176.257 29.7358 176.355 30.6545 176.075 31.7052C176.172 32.0075 176.238 32.3374 176.271 32.6953C176.437 34.468 176.537 37.6528 173.597 40.0483C173.722 40.2912 173.904 40.4898 174.141 40.644"
                      stroke="#738897" stroke-width="0.9" stroke-linecap="round" stroke-linejoin="round"/>
                <path d="M161.021 42.2581C163.559 41.7781 165.739 41.4298 167.561 41.2134C167.853 42.7656 169.2 43.9383 170.818 43.9383C172.486 43.9383 173.867 42.6905 174.1 41.0662C176.221 41.2529 178.271 41.6588 180.808 42.2581"
                      stroke="#738897" stroke-width="0.9" stroke-linecap="round" stroke-linejoin="round"/>
                <mask id="mask22_9653_87960" style="mask-type:luminance" maskUnits="userSpaceOnUse" x="63" y="21"
                      width="28" height="28">
                    <path d="M77.0846 21.9196C84.3113 21.9196 90.1697 27.778 90.1697 35.0047C90.1697 42.2314 84.3113 48.0898 77.0846 48.0898C69.8579 48.0898 63.9995 42.2314 63.9995 35.0047C63.9995 27.778 69.8579 21.9196 77.0846 21.9196Z"
                          fill="white"/>
                </mask>
                <g mask="url(#mask22_9653_87960)">
                    <path d="M63.9995 21.9196H90.1697V48.0898H63.9995V21.9196Z" fill="#F6FAFB"/>
                </g>
                <path d="M77.0846 48.0898C84.3113 48.0898 90.1697 42.2314 90.1697 35.0047C90.1697 27.778 84.3113 21.9196 77.0846 21.9196C69.8579 21.9196 63.9995 27.778 63.9995 35.0047C63.9995 42.2314 69.8579 48.0898 77.0846 48.0898Z"
                      stroke="#738897" stroke-width="0.9" stroke-linejoin="round"/>
                <path d="M69.1387 40.8307C70.593 39.4881 71.3202 37.6153 71.3202 35.2123C71.3202 31.6078 70.8381 26.8654 73.5618 25.3625C76.2855 23.8596 82.1196 24.418 82.1196 28.6915C82.1196 32.9651 82.3238 39.3651 84.2973 40.1447"
                      stroke="#738897" stroke-width="0.9" stroke-linecap="round" stroke-linejoin="round"/>
                <path d="M66.6782 41.2896C69.3747 40.7861 71.6905 40.4208 73.6256 40.1938C73.9354 41.8219 75.3664 43.0521 77.0846 43.0521C78.8572 43.0521 80.3241 41.7429 80.571 40.0387C82.8243 40.2352 85.0023 40.661 87.6967 41.2896"
                      stroke="#738897" stroke-width="0.9" stroke-linecap="round" stroke-linejoin="round"/>
                <path d="M74.8505 38.5138C74.3272 38.1772 73.9017 37.7517 73.5739 37.2372M72.7035 36.5989C72.637 36.3959 72.579 36.1831 72.5293 35.9606"
                      stroke="#738897" stroke-width="0.9" stroke-linecap="round" stroke-linejoin="round"/>
                <mask id="mask23_9653_87960" style="mask-type:luminance" maskUnits="userSpaceOnUse" x="109" y="108"
                      width="28" height="27">
                    <path d="M123.042 108.089C130.269 108.089 136.127 113.948 136.127 121.175C136.127 128.401 130.269 134.26 123.042 134.26C115.816 134.26 109.957 128.401 109.957 121.175C109.957 113.948 115.816 108.089 123.042 108.089Z"
                          fill="white"/>
                </mask>
                <g mask="url(#mask23_9653_87960)">
                    <path d="M109.957 108.089H136.127V134.26H109.957V108.089Z" fill="#F6FAFB"/>
                </g>
                <path d="M123.042 134.26C130.269 134.26 136.127 128.401 136.127 121.175C136.127 113.948 130.269 108.089 123.042 108.089C115.816 108.089 109.957 113.948 109.957 121.175C109.957 128.401 115.816 134.26 123.042 134.26Z"
                      stroke="#738897" stroke-width="0.9" stroke-linejoin="round"/>
                <path d="M115.096 126.999C116.551 125.656 117.278 123.783 117.278 121.38C117.278 117.776 116.796 113.033 119.519 111.53C122.243 110.028 128.077 110.586 128.077 114.86C128.077 119.133 128.281 125.533 130.255 126.313"
                      stroke="#738897" stroke-width="0.9" stroke-linecap="round" stroke-linejoin="round"/>
                <path d="M112.636 127.463C115.332 126.96 117.648 126.595 119.583 126.368C119.893 127.996 121.324 129.226 123.042 129.226C124.815 129.226 126.282 127.917 126.528 126.213C128.782 126.409 130.96 126.835 133.654 127.463"
                      stroke="#738897" stroke-width="0.9" stroke-linecap="round" stroke-linejoin="round"/>
                <path d="M124.638 124.685C125.161 124.349 125.586 123.923 125.914 123.409M126.146 122.132C126.213 121.929 126.271 121.716 126.321 121.494"
                      stroke="#738897" stroke-width="0.9" stroke-linecap="round" stroke-linejoin="round"/>
                <mask id="mask24_9653_87960" style="mask-type:luminance" maskUnits="userSpaceOnUse" x="70" y="72"
                      width="9" height="39">
                    <path d="M75.8345 72.316L78.3259 110.038C69.1083 97.8299 68.2778 85.2558 75.8345 72.316Z"
                          fill="white"/>
                </mask>
                <g mask="url(#mask24_9653_87960)">
                    <path d="M75.5891 72.2068L91.9303 79.4823L78.3259 110.038L61.9848 102.763L75.5891 72.2068Z"
                          fill="white"/>
                </g>
                <path d="M76.4898 71.9388L76.8672 79.2526C76.8808 79.5166 76.6778 79.7417 76.4138 79.7553C76.1497 79.769 75.9246 79.566 75.911 79.3019L75.6275 73.812L73.6287 77.8368C69.1755 88.7431 70.8608 99.3615 78.7078 109.755C78.8671 109.966 78.8252 110.266 78.6142 110.425C78.4032 110.584 78.103 110.542 77.9437 110.331C69.899 99.6766 68.1575 88.7036 72.7567 77.4429L74.7707 73.3872L70.2267 76.4797C70.028 76.6149 69.7638 76.5804 69.6057 76.4088L69.5616 76.3533C69.4128 76.1347 69.4694 75.8369 69.688 75.6882L75.7424 71.5677C76.051 71.3577 76.4706 71.566 76.4898 71.9388Z"
                      fill="#738897"/>
                <mask id="mask25_9653_87960" style="mask-type:luminance" maskUnits="userSpaceOnUse" x="103" y="21"
                      width="39" height="7">
                    <path d="M141.138 27.7151L103.343 26.9094C116.308 18.7909 128.906 19.0595 141.138 27.7151Z"
                          fill="white"/>
                </mask>
                <g mask="url(#mask25_9653_87960)">
                    <path d="M141.269 27.4802L132.596 43.1251L103.343 26.9094L112.015 11.2645L141.269 27.4802Z"
                          fill="white"/>
                </g>
                <path d="M141.462 28.3978L134.143 28.1363C133.879 28.1269 133.672 27.905 133.682 27.6408C133.691 27.3766 133.913 27.1701 134.177 27.1795L139.671 27.3756L135.835 25.0336C125.359 19.6468 114.634 20.4002 103.597 27.3116C103.372 27.4519 103.077 27.384 102.937 27.1599C102.796 26.9358 102.864 26.6404 103.088 26.5001C114.404 19.4146 125.487 18.636 136.304 24.1992L140.169 26.559L137.484 21.7628C137.367 21.5531 137.424 21.2929 137.609 21.1503L137.668 21.1112C137.899 20.9821 138.19 21.0644 138.319 21.2951L141.896 27.6856C142.079 28.0113 141.835 28.4112 141.462 28.3978Z"
                      fill="#738897"/>
                <mask id="mask26_9653_87960" style="mask-type:luminance" maskUnits="userSpaceOnUse" x="164" y="72"
                      width="14" height="37">
                    <path d="M176.307 72.1224L164.764 108.121C176.661 98.5056 180.509 86.506 176.307 72.1224Z"
                          fill="white"/>
                </mask>
                <g mask="url(#mask26_9653_87960)">
                    <path d="M176.571 72.0758L158.955 75.182L164.764 108.121L182.379 105.015L176.571 72.0758Z"
                          fill="white"/>
                </g>
                <path d="M176.236 71.6467L176.173 71.6607C175.919 71.7349 175.773 72.0007 175.847 72.2545C179.434 84.5331 177.087 95.0123 168.823 103.737L165.492 106.799L167.194 101.574C167.269 101.344 167.16 101.098 166.947 100.995L166.887 100.971C166.635 100.889 166.365 101.026 166.283 101.278L164.015 108.241C163.899 108.596 164.216 108.941 164.579 108.855L171.708 107.178C171.966 107.118 172.125 106.86 172.065 106.603C172.004 106.345 171.746 106.186 171.489 106.246L166.139 107.505L169.495 104.418C178.021 95.4191 180.447 84.5858 176.766 71.986C176.704 71.7745 176.51 71.6381 176.299 71.6415L176.236 71.6467Z"
                      fill="#738897"/>
            </g>
        </g>
    </g>
    <defs>
        <clipPath id="clip0_9653_87960">
            <rect width="121" height="115" fill="white" transform="translate(63 20)"/>
        </clipPath>
    </defs>
</svg>
