<svg width="247" height="156" viewBox="0 0 247 156" fill="none" xmlns="http://www.w3.org/2000/svg">
    <path d="M158.773 136.217C185.186 144.278 196.789 129.918 199.289 121.731C204.445 104.844 205.177 90.6439 198.903 75.5143C192.905 61.05 166.498 28.5188 133.498 30.5812C100.499 32.6436 80.7683 72.7967 59.6936 101.821C38.6189 130.846 66.1982 150.296 82.0604 143.884L82.2152 143.821C97.7252 137.551 125.866 126.175 158.773 136.217Z"
          stroke="#2BDC83" stroke-width="0.9" stroke-linecap="round"/>
    <g clip-path="url(#clip0_9653_87970)">
        <mask id="mask0_9653_87970" style="mask-type:luminance" maskUnits="userSpaceOnUse" x="-104" y="-355" width="943"
              height="714">
            <path d="M838.497 -354.557V358.461H-103.515V-354.557H838.497Z" fill="white"/>
        </mask>
        <g mask="url(#mask0_9653_87970)">
            <mask id="mask1_9653_87970" style="mask-type:luminance" maskUnits="userSpaceOnUse" x="73" y="14" width="134"
                  height="134">
                <path d="M206.544 14.675V147.219H73.9998V14.675H206.544Z" fill="white"/>
            </mask>
            <g mask="url(#mask1_9653_87970)">
                <mask id="mask2_9653_87970" style="mask-type:luminance" maskUnits="userSpaceOnUse" x="141" y="91"
                      width="5" height="12">
                    <path d="M144.895 97.0332C143.952 100.037 142.583 102.263 141.838 102.005C141.092 101.747 141.252 99.1022 142.195 96.0982C143.138 93.0943 144.507 90.8684 145.253 91.1265C145.998 91.3848 145.838 94.0293 144.895 97.0332Z"
                          fill="white"/>
                </mask>
                <g mask="url(#mask2_9653_87970)">
                    <path d="M146.689 91.6001L143.119 102.427L140.402 101.531L143.971 90.7041L146.689 91.6001Z"
                          fill="#FFFEFF"/>
                </g>
                <path d="M142.195 96.1009C141.252 99.1049 141.092 101.749 141.838 102.008C142.583 102.266 143.952 100.04 144.895 97.0359C145.838 94.032 145.998 91.3875 145.253 91.1292C144.507 90.8711 143.138 93.097 142.195 96.1009Z"
                      stroke="#738997" stroke-width="0.9" stroke-linecap="round" stroke-linejoin="round"/>
                <mask id="mask3_9653_87970" style="mask-type:luminance" maskUnits="userSpaceOnUse" x="140" y="90"
                      width="6" height="13">
                    <path d="M144.069 90.4306C144.151 90.4045 144.241 90.4033 144.329 90.4331L145.547 90.8459C145.779 90.9247 145.906 91.1877 145.831 91.4356L142.551 102.273C142.476 102.521 142.229 102.658 141.996 102.579L140.779 102.166C140.709 102.142 140.65 102.101 140.602 102.049C140.002 101.542 140.242 98.8439 141.155 95.8253C142.046 92.8841 143.294 90.5728 144.069 90.4306Z"
                          fill="white"/>
                </mask>
                <g mask="url(#mask3_9653_87970)">
                    <path d="M140.273 90.4109H145.852V102.601H140.273V90.4109Z" fill="#FFFEFF"/>
                </g>
                <path d="M145.83 91.4373C145.905 91.1894 145.779 90.9264 145.546 90.8477L144.329 90.4348C144.241 90.405 144.15 90.4062 144.068 90.4323C143.294 90.5745 142.046 92.8858 141.155 95.827C140.242 98.8456 140.002 101.543 140.602 102.051C140.65 102.102 140.709 102.144 140.778 102.168L141.996 102.581C142.228 102.659 142.476 102.523 142.551 102.275L145.83 91.4373Z"
                      stroke="#738997" stroke-width="0.9" stroke-linecap="round" stroke-linejoin="round"/>
                <mask id="mask4_9653_87970" style="mask-type:luminance" maskUnits="userSpaceOnUse" x="141" y="91"
                      width="6" height="12">
                    <path d="M145.427 97.2149C144.438 100.365 143.035 102.71 142.293 102.453C141.551 102.196 141.751 99.4345 142.74 96.2843C143.729 93.1342 145.132 90.7888 145.874 91.0458C146.616 91.3028 146.416 94.0648 145.427 97.2149Z"
                          fill="white"/>
                </mask>
                <g mask="url(#mask4_9653_87970)">
                    <path d="M147.308 91.5186L143.564 102.873L140.859 101.981L144.603 90.6266L147.308 91.5186Z"
                          fill="#FFFEFF"/>
                </g>
                <path d="M142.74 96.2816C141.751 99.4318 141.551 102.194 142.293 102.451C143.035 102.708 144.438 100.362 145.427 97.2122C146.416 94.0621 146.616 91.3001 145.874 91.0431C145.132 90.7861 143.729 93.1315 142.74 96.2816Z"
                      stroke="#738997" stroke-width="0.9" stroke-linecap="round" stroke-linejoin="round"/>
                <mask id="mask5_9653_87970" style="mask-type:luminance" maskUnits="userSpaceOnUse" x="142" y="92"
                      width="4" height="9">
                    <path d="M144.642 96.9277C143.965 99.0837 143.167 100.745 142.859 100.639C142.552 100.532 142.851 98.6979 143.528 96.5418C144.204 94.3858 145.003 92.7243 145.31 92.8308C145.618 92.9374 145.319 94.7716 144.642 96.9277Z"
                          fill="white"/>
                </mask>
                <g mask="url(#mask5_9653_87970)">
                    <path d="M145.928 93.0347L143.366 100.806L142.241 100.435L144.803 92.6637L145.928 93.0347Z"
                          fill="#2BDC83"/>
                </g>
                <mask id="mask6_9653_87970" style="mask-type:luminance" maskUnits="userSpaceOnUse" x="136" y="57"
                      width="7" height="12">
                    <path d="M136.939 68.3955C136.137 68.0773 136.53 65.4533 137.817 62.5345C139.105 59.6158 140.799 57.5076 141.602 57.8257C142.405 58.1439 142.012 60.768 140.724 63.6867C139.436 66.6055 137.742 68.7136 136.939 68.3955Z"
                          fill="white"/>
                </mask>
                <g mask="url(#mask6_9653_87970)">
                    <path d="M135.597 67.8342L140.053 57.1777L142.945 58.387L138.488 69.0435L135.597 67.8342Z"
                          fill="#FFFEFF"/>
                </g>
                <path d="M140.724 63.6906C142.012 60.7719 142.405 58.1478 141.602 57.8296C140.799 57.5115 139.105 59.6197 137.817 62.5384C136.53 65.4572 136.137 68.0812 136.939 68.3995C137.742 68.7176 139.436 66.6094 140.724 63.6906Z"
                      stroke="#738997" stroke-width="0.9" stroke-linecap="round" stroke-linejoin="round"/>
                <mask id="mask7_9653_87970" style="mask-type:luminance" maskUnits="userSpaceOnUse" x="135" y="57"
                      width="9" height="12">
                    <path d="M140.672 57.6825C140.781 57.4495 141.083 57.3387 141.349 57.4341L142.744 57.9342C142.824 57.9628 142.889 58.0079 142.942 58.0618C143.603 58.6016 143.093 61.1853 141.767 64.0226C140.473 66.7871 138.813 68.9137 137.892 68.9864C137.794 69.0048 137.687 68.9984 137.587 68.9623L136.192 68.4623C135.926 68.3669 135.8 68.1025 135.908 67.8694L140.672 57.6825Z"
                          fill="white"/>
                </mask>
                <g mask="url(#mask7_9653_87970)">
                    <path d="M135.869 57.3999H143.23V68.9964H135.869V57.3999Z" fill="#FFFEFF"/>
                </g>
                <path d="M135.909 67.8709C135.8 68.1039 135.926 68.3683 136.192 68.4637L137.587 68.9638C137.688 68.9999 137.794 69.0062 137.892 68.9879C138.813 68.9152 140.473 66.7885 141.767 64.024C143.094 61.1868 143.603 58.6031 142.942 58.0632C142.89 58.0094 142.824 57.9643 142.744 57.9356L141.349 57.4356C141.083 57.3402 140.781 57.451 140.672 57.684L135.909 67.8709Z"
                      stroke="#738997" stroke-width="0.9" stroke-linecap="round" stroke-linejoin="round"/>
                <mask id="mask8_9653_87970" style="mask-type:luminance" maskUnits="userSpaceOnUse" x="135" y="57"
                      width="7" height="12">
                    <path d="M136.245 68.4367C135.446 68.1199 135.893 65.382 137.244 62.3212C138.594 59.2604 140.336 57.0359 141.135 57.3525C141.934 57.6692 141.487 60.4072 140.137 63.468C138.786 66.5288 137.044 68.7533 136.245 68.4367Z"
                          fill="white"/>
                </mask>
                <g mask="url(#mask8_9653_87970)">
                    <path d="M134.914 67.8801L139.587 56.7052L142.466 57.9091L137.793 69.084L134.914 67.8801Z"
                          fill="#FFFEFF"/>
                </g>
                <path d="M140.137 63.4694C141.487 60.4087 141.934 57.6707 141.135 57.354C140.336 57.0374 138.594 59.2619 137.244 62.3227C135.893 65.3834 135.447 68.1214 136.245 68.4381C137.044 68.7547 138.787 66.5302 140.137 63.4694Z"
                      stroke="#738997" stroke-width="0.9" stroke-linecap="round" stroke-linejoin="round"/>
                <mask id="mask9_9653_87970" style="mask-type:luminance" maskUnits="userSpaceOnUse" x="136" y="59"
                      width="5" height="8">
                    <path d="M137.015 66.6929C136.684 66.5616 137.165 64.7569 138.089 62.662C139.013 60.567 140.031 58.9752 140.362 59.1065C140.693 59.2378 140.213 61.0425 139.288 63.1374C138.364 65.2324 137.347 66.8242 137.015 66.6929Z"
                          fill="white"/>
                </mask>
                <g mask="url(#mask9_9653_87970)">
                    <path d="M136.49 66.4731L139.688 58.8246L140.888 59.3262L137.689 66.9748L136.49 66.4731Z"
                          fill="#2BDC83"/>
                </g>
                <mask id="mask10_9653_87970" style="mask-type:luminance" maskUnits="userSpaceOnUse" x="151" y="45"
                      width="6" height="11">
                    <path d="M156.567 55.7688C157.392 55.4563 156.988 52.8795 155.665 50.0132C154.341 47.147 152.6 45.0767 151.775 45.3892C150.95 45.7016 151.354 48.2785 152.677 51.1447C154.001 54.0109 155.742 56.0812 156.567 55.7688Z"
                          fill="white"/>
                </mask>
                <g mask="url(#mask10_9653_87970)">
                    <path d="M157.86 55.2283L153.452 44.6873L150.481 45.9297L154.889 56.4707L157.86 55.2283Z"
                          fill="#FFFEFF"/>
                </g>
                <path d="M152.677 51.1423C151.354 48.276 150.95 45.6992 151.775 45.3867C152.6 45.0743 154.341 47.1445 155.665 50.0108C156.988 52.877 157.392 55.4539 156.567 55.7663C155.742 56.0788 154.001 54.0085 152.677 51.1423Z"
                      stroke="#738997" stroke-width="0.9" stroke-linecap="round" stroke-linejoin="round"/>
                <mask id="mask11_9653_87970" style="mask-type:luminance" maskUnits="userSpaceOnUse" x="149" y="45"
                      width="9" height="12">
                    <path d="M152.369 45.5722L157.265 55.5759C157.377 55.8047 157.247 56.0644 156.973 56.1581L155.54 56.6491C155.436 56.6846 155.327 56.6908 155.226 56.6728C154.28 56.6014 152.573 54.513 151.243 51.7982C149.88 49.012 149.357 46.4748 150.036 45.9446C150.09 45.8917 150.157 45.8475 150.239 45.8193L151.673 45.3283C151.946 45.2346 152.257 45.3434 152.369 45.5722Z"
                          fill="white"/>
                </mask>
                <g mask="url(#mask11_9653_87970)">
                    <path d="M149.74 45.2947H157.305V56.6826H149.74V45.2947Z" fill="#FFFEFF"/>
                </g>
                <path d="M157.265 55.5776C157.377 55.8064 157.247 56.0661 156.973 56.1598L155.54 56.6508C155.436 56.6863 155.327 56.6925 155.226 56.6745C154.28 56.6031 152.573 54.5147 151.243 51.7999C149.88 49.0137 149.357 46.4765 150.036 45.9463C150.09 45.8935 150.157 45.8492 150.239 45.821L151.673 45.33C151.946 45.2363 152.257 45.3451 152.369 45.5739L157.265 55.5776Z"
                      stroke="#738997" stroke-width="0.9" stroke-linecap="round" stroke-linejoin="round"/>
                <mask id="mask12_9653_87970" style="mask-type:luminance" maskUnits="userSpaceOnUse" x="151" y="44"
                      width="7" height="12">
                    <path d="M157.28 55.8074C158.101 55.4965 157.641 52.8078 156.254 49.8021C154.866 46.7963 153.075 44.6118 152.254 44.9228C151.433 45.2338 151.892 47.9225 153.28 50.9282C154.668 53.9339 156.459 56.1184 157.28 55.8074Z"
                          fill="white"/>
                </mask>
                <g mask="url(#mask12_9653_87970)">
                    <path d="M158.558 55.2732L153.935 44.2194L150.976 45.4571L155.598 56.5109L158.558 55.2732Z"
                          fill="#FFFEFF"/>
                </g>
                <path d="M153.28 50.927C151.892 47.9213 151.433 45.2326 152.254 44.9216C153.075 44.6106 154.866 46.7951 156.254 49.8008C157.641 52.8065 158.101 55.4952 157.28 55.8062C156.459 56.1172 154.668 53.9327 153.28 50.927Z"
                      stroke="#738997" stroke-width="0.9" stroke-linecap="round" stroke-linejoin="round"/>
                <mask id="mask13_9653_87970" style="mask-type:luminance" maskUnits="userSpaceOnUse" x="152" y="46"
                      width="5" height="9">
                    <path d="M156.489 54.0918C156.829 53.9628 156.335 52.1906 155.386 50.1333C154.436 48.0761 153.39 46.5129 153.049 46.6418C152.709 46.7708 153.203 48.543 154.153 50.6002C155.103 52.6575 156.149 54.2207 156.489 54.0918Z"
                          fill="white"/>
                </mask>
                <g mask="url(#mask13_9653_87970)">
                    <path d="M156.974 53.8889L153.811 46.3233L152.564 46.8447L155.728 54.4103L156.974 53.8889Z"
                          fill="#2BDC83"/>
                </g>
                <mask id="mask14_9653_87970" style="mask-type:luminance" maskUnits="userSpaceOnUse" x="136" y="20"
                      width="12" height="13">
                    <path d="M144.208 21.0723C147.171 22.3079 148.696 25.6534 147.615 28.5447C146.533 31.436 143.254 32.7783 140.291 31.5427C137.327 30.3071 135.802 26.9616 136.884 24.0703C137.965 21.179 141.245 19.8368 144.208 21.0723Z"
                          fill="white"/>
                </mask>
                <g mask="url(#mask14_9653_87970)">
                    <path d="M138.896 18.9731L149.709 23.244L145.602 33.6419L134.789 29.371L138.896 18.9731Z"
                          fill="#F3F6F7"/>
                </g>
                <path d="M140.291 31.5442C143.254 32.7797 146.533 31.4375 147.615 28.5462C148.696 25.6549 147.171 22.3094 144.208 21.0738C141.245 19.8382 137.965 21.1805 136.884 24.0718C135.802 26.9631 137.327 30.3086 140.291 31.5442Z"
                      stroke="#738997" stroke-width="0.9" stroke-linecap="round" stroke-linejoin="round"/>
                <mask id="mask15_9653_87970" style="mask-type:luminance" maskUnits="userSpaceOnUse" x="139" y="23"
                      width="7" height="7">
                    <path d="M143.253 23.6333C144.77 24.2661 145.551 25.9795 144.997 27.4604C144.443 28.9412 142.764 29.6287 141.246 28.9959C139.729 28.3631 138.947 26.6496 139.501 25.1687C140.055 23.6879 141.735 23.0004 143.253 23.6333Z"
                          fill="white"/>
                </mask>
                <g mask="url(#mask15_9653_87970)">
                    <path d="M140.532 22.5581L146.07 24.7455L143.967 30.071L138.429 27.8836L140.532 22.5581Z"
                          fill="#2BDC83"/>
                </g>
                <path d="M140.83 30.0976C142.977 30.9931 145.354 30.0203 146.138 27.9248C146.922 25.8292 145.816 23.4045 143.669 22.509C141.521 21.6135 139.144 22.5863 138.36 24.6818C137.576 26.7774 138.682 29.2021 140.83 30.0976Z"
                      stroke="#738997" stroke-width="0.9" stroke-linecap="round" stroke-linejoin="round"
                      stroke-dasharray="5.8 1.45 0.72 1.45"/>
                <mask id="mask16_9653_87970" style="mask-type:luminance" maskUnits="userSpaceOnUse" x="141" y="24"
                      width="3" height="5">
                    <path d="M142.736 24.323L142.688 24.7121C142.925 24.7576 143.155 24.8569 143.376 25.0097L143.127 25.5082C142.942 25.3829 142.772 25.3035 142.62 25.2699L142.525 26.0455C142.57 26.0709 142.593 26.0852 142.593 26.0885C142.778 26.2022 142.914 26.3074 143.001 26.4041C143.088 26.4992 143.148 26.6042 143.181 26.7192C143.214 26.8325 143.222 26.9626 143.204 27.1094C143.172 27.3687 143.077 27.5682 142.919 27.7078C142.763 27.8459 142.555 27.9132 142.297 27.9098L142.235 28.4212L141.966 28.3883L142.027 27.8867C141.735 27.8411 141.48 27.7404 141.264 27.5849L141.338 26.983C141.452 27.0748 141.575 27.1535 141.706 27.2193C141.838 27.285 141.967 27.3289 142.093 27.3509L142.194 26.524L142.117 26.4749C141.871 26.3107 141.704 26.152 141.616 25.9989C141.529 25.8443 141.499 25.6602 141.526 25.4465C141.555 25.2019 141.648 25.0137 141.804 24.8821C141.96 24.7489 142.165 24.6828 142.419 24.6841L142.467 24.2902L142.736 24.323ZM142.447 26.6865L142.363 27.3691C142.535 27.3587 142.634 27.2548 142.658 27.0575C142.667 26.9841 142.659 26.9218 142.633 26.8707C142.61 26.8182 142.548 26.7568 142.447 26.6865ZM142.351 25.237C142.186 25.2433 142.092 25.3353 142.07 25.5131C142.06 25.5963 142.07 25.6662 142.101 25.723C142.132 25.7781 142.189 25.8298 142.273 25.878L142.351 25.237Z"
                          fill="white"/>
                </mask>
                <g mask="url(#mask16_9653_87970)">
                    <path d="M141.679 24.1938L143.533 24.4205L143.032 28.5186L141.178 28.292L141.679 24.1938Z"
                          fill="#FFFEFF"/>
                </g>
                <mask id="mask17_9653_87970" style="mask-type:luminance" maskUnits="userSpaceOnUse" x="153" y="69"
                      width="12" height="13">
                    <path d="M160.776 70.1817C163.739 71.4173 165.264 74.7628 164.183 77.6541C163.101 80.5454 159.822 81.8877 156.858 80.6521C153.895 79.4165 152.37 76.071 153.452 73.1797C154.533 70.2884 157.812 68.9461 160.776 70.1817Z"
                          fill="white"/>
                </mask>
                <g mask="url(#mask17_9653_87970)">
                    <path d="M155.464 68.0825L166.277 72.3534L162.17 82.7513L151.357 78.4804L155.464 68.0825Z"
                          fill="#F3F6F7"/>
                </g>
                <path d="M156.859 80.6535C159.822 81.8891 163.101 80.5469 164.183 77.6556C165.265 74.7643 163.739 71.4188 160.776 70.1832C157.813 68.9476 154.534 70.2899 153.452 73.1812C152.37 76.0725 153.895 79.418 156.859 80.6535Z"
                      stroke="#738997" stroke-width="0.9" stroke-linecap="round" stroke-linejoin="round"/>
                <mask id="mask18_9653_87970" style="mask-type:luminance" maskUnits="userSpaceOnUse" x="155" y="72"
                      width="7" height="7">
                    <path d="M159.821 72.7426C161.339 73.3754 162.12 75.0889 161.566 76.5698C161.012 78.0506 159.332 78.7381 157.815 78.1053C156.297 77.4724 155.516 75.759 156.07 74.2781C156.624 72.7973 158.303 72.1098 159.821 72.7426Z"
                          fill="white"/>
                </mask>
                <g mask="url(#mask18_9653_87970)">
                    <path d="M157.1 71.6675L162.639 73.8549L160.535 79.1804L154.997 76.993L157.1 71.6675Z"
                          fill="#2BDC83"/>
                </g>
                <path d="M157.398 79.2094C159.546 80.1049 161.923 79.1321 162.707 77.0366C163.491 74.941 162.385 72.5163 160.238 71.6208C158.09 70.7253 155.713 71.6981 154.929 73.7937C154.145 75.8892 155.251 78.3139 157.398 79.2094Z"
                      stroke="#738997" stroke-width="0.9" stroke-linecap="round" stroke-linejoin="round"
                      stroke-dasharray="5.8 1.45 0.72 1.45"/>
                <mask id="mask19_9653_87970" style="mask-type:luminance" maskUnits="userSpaceOnUse" x="157" y="73"
                      width="3" height="5">
                    <path d="M159.303 73.45L159.256 73.839C159.493 73.8846 159.722 73.9838 159.944 74.1367L159.695 74.6351C159.509 74.5098 159.34 74.4304 159.187 74.3968L159.093 75.1724C159.138 75.1979 159.161 75.2122 159.16 75.2155C159.346 75.3292 159.482 75.4344 159.569 75.5311C159.656 75.6262 159.716 75.7312 159.749 75.8461C159.782 75.9595 159.79 76.0895 159.772 76.2363C159.74 76.4957 159.645 76.6951 159.487 76.8347C159.33 76.9728 159.123 77.0402 158.865 77.0368L158.802 77.5481L158.533 77.5153L158.595 77.0137C158.302 76.968 158.048 76.8674 157.832 76.7118L157.905 76.11C158.02 76.2017 158.142 76.2805 158.274 76.3462C158.406 76.412 158.534 76.4559 158.66 76.4779L158.761 75.6509L158.685 75.6018C158.438 75.4376 158.271 75.2789 158.183 75.1258C158.097 74.9713 158.067 74.7872 158.093 74.5735C158.123 74.3288 158.216 74.1407 158.372 74.0091C158.527 73.8758 158.732 73.8098 158.986 73.811L159.034 73.4171L159.303 73.45ZM159.014 75.8134L158.931 76.4961C159.103 76.4857 159.201 76.3818 159.225 76.1844C159.234 76.111 159.226 76.0488 159.201 75.9977C159.178 75.9452 159.115 75.8838 159.014 75.8134ZM158.919 74.364C158.753 74.3702 158.66 74.4623 158.638 74.6401C158.628 74.7232 158.638 74.7932 158.669 74.8499C158.7 74.905 158.757 74.9567 158.84 75.005L158.919 74.364Z"
                          fill="white"/>
                </mask>
                <g mask="url(#mask19_9653_87970)">
                    <path d="M158.246 73.3208L160.1 73.5474L159.599 77.6456L157.745 77.4189L158.246 73.3208Z"
                          fill="#FFFEFF"/>
                </g>
                <mask id="mask20_9653_87970" style="mask-type:luminance" maskUnits="userSpaceOnUse" x="121" y="108"
                      width="53" height="35">
                    <path d="M168.184 108.163C171.069 108.163 173.408 110.502 173.408 113.387V137.258C173.408 140.143 171.069 142.482 168.184 142.482H126.561C123.676 142.482 121.337 140.143 121.337 137.258V113.387C121.337 110.502 123.676 108.163 126.561 108.163H168.184Z"
                          fill="white"/>
                </mask>
                <g mask="url(#mask20_9653_87970)">
                    <path d="M121.337 108.163H173.408V142.482H121.337V108.163Z" fill="#FFFEFF"/>
                </g>
                <path d="M126.562 108.164H168.184C171.069 108.164 173.408 110.503 173.408 113.389V137.26C173.408 140.145 171.069 142.484 168.184 142.484H126.562C123.676 142.484 121.337 140.145 121.337 137.26V113.389C121.337 110.503 123.676 108.164 126.562 108.164Z"
                      stroke="#738997" stroke-width="0.9" stroke-linecap="round" stroke-linejoin="round"/>
                <mask id="mask21_9653_87970" style="mask-type:luminance" maskUnits="userSpaceOnUse" x="123" y="109"
                      width="49" height="32">
                    <path d="M166.878 109.346C169.504 109.346 171.633 111.475 171.633 114.101V135.952C171.633 138.578 169.504 140.707 166.878 140.707H127.868C125.241 140.707 123.112 138.578 123.112 135.952V114.101C123.112 111.475 125.241 109.346 127.868 109.346H166.878Z"
                          fill="white"/>
                </mask>
                <g mask="url(#mask21_9653_87970)">
                    <path d="M123.112 109.346H171.633V140.707H123.112V109.346Z" fill="#FFFEFF"/>
                </g>
                <path d="M127.868 109.348H166.878C169.504 109.348 171.633 111.477 171.633 114.103V135.953C171.633 138.58 169.504 140.709 166.878 140.709H127.868C125.241 140.709 123.112 138.58 123.112 135.953V114.103C123.112 111.477 125.241 109.348 127.868 109.348Z"
                      stroke="#738997" stroke-width="0.9" stroke-linecap="round" stroke-linejoin="round"/>
                <mask id="mask22_9653_87970" style="mask-type:luminance" maskUnits="userSpaceOnUse" x="118" y="116"
                      width="25" height="10">
                    <path d="M139.766 116.443C141.353 116.443 142.639 117.73 142.639 119.317V123.038C142.639 124.624 141.353 125.911 139.766 125.911H121.252C119.665 125.911 118.379 124.624 118.379 123.038V119.317C118.379 117.73 119.665 116.443 121.252 116.443H139.766Z"
                          fill="white"/>
                </mask>
                <g mask="url(#mask22_9653_87970)">
                    <path d="M118.379 116.443H142.639V125.911H118.379V116.443Z" fill="#FFFEFF"/>
                </g>
                <path d="M121.252 116.445H139.766C141.353 116.445 142.639 117.731 142.639 119.318V123.039C142.639 124.626 141.353 125.913 139.766 125.913H121.252C119.665 125.913 118.379 124.626 118.379 123.039V119.318C118.379 117.731 119.665 116.445 121.252 116.445Z"
                      stroke="#738997" stroke-width="0.9" stroke-linecap="round" stroke-linejoin="round"/>
                <mask id="mask23_9653_87970" style="mask-type:luminance" maskUnits="userSpaceOnUse" x="135" y="118"
                      width="5" height="5">
                    <path d="M137.314 118.816C138.294 118.816 139.089 119.61 139.089 120.591C139.089 121.571 138.294 122.366 137.314 122.366C136.334 122.366 135.539 121.571 135.539 120.591C135.539 119.61 136.334 118.816 137.314 118.816Z"
                          fill="white"/>
                </mask>
                <g mask="url(#mask23_9653_87970)">
                    <path d="M135.539 118.816H139.089V122.366H135.539V118.816Z" fill="#2BDC83"/>
                </g>
                <path d="M137.314 122.364C138.294 122.364 139.089 121.569 139.089 120.589C139.089 119.609 138.294 118.814 137.314 118.814C136.334 118.814 135.539 119.609 135.539 120.589C135.539 121.569 136.334 122.364 137.314 122.364Z"
                      stroke="#738997" stroke-width="0.9" stroke-linecap="round" stroke-linejoin="round"/>
                <mask id="mask24_9653_87970" style="mask-type:luminance" maskUnits="userSpaceOnUse" x="47" y="115"
                      width="126" height="31">
                    <path d="M47.3728 115.26C47.3728 115.26 105.795 133.363 118.214 131.286C123.397 130.419 124.942 130.014 126.674 129.611L126.887 129.561C127.71 129.372 128.609 129.178 129.979 128.934C134.973 128.042 137.618 128.318 139.976 128.435C140.753 128.473 143.039 128.629 145.33 128.769L145.859 128.801C148.055 128.933 150.149 129.041 150.808 129.008C151.528 128.972 157.548 128.418 156.829 131.707C156.11 134.995 146.433 133.024 144.866 133.339C142.702 133.773 141.32 133.787 139.023 134.638C136.41 135.606 137.582 138.363 146.174 139.405C148.414 139.623 153.159 139.655 158.032 139.773L158.746 139.79C161.007 139.849 163.272 139.928 165.302 140.056C171.608 140.452 172.38 141.752 172.203 143.761L172.188 143.915C172.182 143.967 172.176 144.019 172.169 144.072C172.169 144.072 153.236 146.107 140.188 145.209C129.876 144.5 126.881 143.44 123.549 142.891L123.214 142.838C121.084 142.513 118.717 142.405 114.168 142.733H56.5561L47.3728 115.26Z"
                          fill="white"/>
                </mask>
                <g mask="url(#mask24_9653_87970)">
                    <path d="M74 115.26H172.225V145.438H74V115.26Z" fill="white"/>
                </g>
                <path d="M47.3728 115.262C47.3728 115.262 105.795 133.365 118.214 131.287C126.041 129.978 125.571 129.722 129.979 128.935C134.973 128.044 137.618 128.32 139.976 128.436C141.561 128.515 149.411 129.079 150.808 129.01C151.528 128.974 157.548 128.42 156.829 131.708C156.11 134.997 146.433 133.026 144.866 133.34C142.702 133.774 141.32 133.789 139.023 134.639C136.41 135.607 137.582 138.364 146.174 139.406C149.562 139.737 158.677 139.641 165.302 140.057C171.927 140.474 172.444 141.887 172.169 144.073C172.169 144.073 153.236 146.108 140.188 145.211C123.002 144.028 126.138 141.872 114.168 142.734H56.5561L47.3728 115.262Z"
                      stroke="#738897" stroke-width="0.9" stroke-linecap="round" stroke-linejoin="round"/>
                <mask id="mask25_9653_87970" style="mask-type:luminance" maskUnits="userSpaceOnUse" x="151" y="128"
                      width="5" height="4">
                    <path d="M152.079 128.873C152.958 128.873 155.657 128.931 155.657 129.679C155.657 131.985 153.871 132.092 152.329 131.581C151.421 131.134 151.183 129.829 152.079 128.873Z"
                          fill="white"/>
                </mask>
                <g mask="url(#mask25_9653_87970)">
                    <path d="M151.515 128.873H155.657V131.831H151.515V128.873Z" fill="white"/>
                </g>
                <path d="M152.079 128.874C151.183 129.83 151.421 131.135 152.329 131.582C153.871 132.093 155.657 131.986 155.657 129.68C155.657 128.932 152.958 128.874 152.079 128.874Z"
                      stroke="#738897" stroke-width="0.9" stroke-linecap="round" stroke-linejoin="round"/>
                <mask id="mask26_9653_87970" style="mask-type:luminance" maskUnits="userSpaceOnUse" x="166" y="143"
                      width="7" height="2">
                    <path d="M167.437 143.815C169.782 143.641 172.449 143.543 172.21 143.959C172.1 144.152 169.495 144.223 167.985 144.257C166.84 144.234 166.511 143.964 167.437 143.815Z"
                          fill="white"/>
                </mask>
                <g mask="url(#mask26_9653_87970)">
                    <path d="M166.9 143.666H172.225V144.257H166.9V143.666Z" fill="white"/>
                </g>
                <path d="M167.437 143.816C166.51 143.965 166.839 144.235 167.984 144.258C169.494 144.225 172.1 144.153 172.21 143.961C172.448 143.545 169.782 143.642 167.437 143.816Z"
                      stroke="#738897" stroke-width="0.9" stroke-linecap="round" stroke-linejoin="round"/>
                <mask id="mask27_9653_87970" style="mask-type:luminance" maskUnits="userSpaceOnUse" x="46" y="109"
                      width="54" height="35">
                    <path d="M46.7638 109.347C46.7638 109.347 97.2866 126.929 99.1236 130.476C100.961 134.023 94.3016 143.074 94.3016 143.074L46.1897 142.127L46.7638 109.347Z"
                          fill="white"/>
                </mask>
                <g mask="url(#mask27_9653_87970)">
                    <path d="M74 109.347H99.4438V143.074H74V109.347Z" fill="white"/>
                </g>
                <path d="M94.3013 143.076L46.1895 142.129L46.7635 109.348C46.7635 109.348 97.2864 126.93 99.1234 130.478C100.96 134.025 94.3013 143.076 94.3013 143.076Z"
                      stroke="#738897" stroke-width="0.9" stroke-linecap="round" stroke-linejoin="round"/>
                <mask id="mask28_9653_87970" style="mask-type:luminance" maskUnits="userSpaceOnUse" x="91" y="125"
                      width="17" height="20">
                    <path d="M95.1463 125.367C107.049 126.771 108.155 125.541 107.623 134.737C107.231 141.061 107.238 144.892 105.409 144.85C103.776 144.812 99.9604 144.565 94.101 144.536C90.5336 144.844 91.1456 124.259 95.1463 125.367Z"
                          fill="white"/>
                </mask>
                <g mask="url(#mask28_9653_87970)">
                    <path d="M91.7517 125.323H107.728V144.85H91.7517V125.323Z" fill="white"/>
                </g>
                <path d="M107.623 134.737C107.231 141.061 107.238 144.892 105.409 144.85C103.776 144.813 99.9604 144.565 94.101 144.537C90.5336 144.844 91.1456 124.259 95.1463 125.367C107.049 126.772 108.155 125.541 107.623 134.737Z"
                      stroke="#738897" stroke-width="0.9" stroke-linecap="round" stroke-linejoin="round"/>
                <mask id="mask29_9653_87970" style="mask-type:luminance" maskUnits="userSpaceOnUse" x="97" y="134"
                      width="6" height="7">
                    <path d="M99.7399 134.196C101.21 134.196 102.403 135.521 102.403 137.155C102.403 138.789 101.21 140.113 99.7399 140.113C98.2693 140.113 97.0771 138.789 97.0771 137.155C97.0771 135.521 98.2693 134.196 99.7399 134.196Z"
                          fill="white"/>
                </mask>
                <g mask="url(#mask29_9653_87970)">
                    <path d="M97.0771 134.196H102.403V140.113H97.0771V134.196Z" fill="white"/>
                </g>
                <path d="M99.7401 140.118C101.211 140.118 102.403 138.793 102.403 137.159C102.403 135.525 101.211 134.2 99.7401 134.2C98.2695 134.2 97.0774 135.525 97.0774 137.159C97.0774 138.793 98.2695 140.118 99.7401 140.118Z"
                      stroke="#738897" stroke-width="0.9" stroke-linecap="round" stroke-linejoin="round"/>
                <mask id="mask30_9653_87970" style="mask-type:luminance" maskUnits="userSpaceOnUse" x="100" y="136"
                      width="2" height="2">
                    <path d="M100.923 136.561C101.086 136.561 101.219 136.693 101.219 136.857C101.219 137.02 101.086 137.153 100.923 137.153C100.759 137.153 100.627 137.02 100.627 136.857C100.627 136.693 100.759 136.561 100.923 136.561Z"
                          fill="white"/>
                </mask>
                <g mask="url(#mask30_9653_87970)">
                    <path d="M100.627 136.561H101.219V137.153H100.627V136.561Z" fill="white"/>
                </g>
                <path d="M100.923 137.156C101.086 137.156 101.219 137.024 101.219 136.861C101.219 136.697 101.086 136.565 100.923 136.565C100.76 136.565 100.627 136.697 100.627 136.861C100.627 137.024 100.76 137.156 100.923 137.156Z"
                      stroke="#738897" stroke-width="0.9" stroke-linecap="round" stroke-linejoin="round"/>
                <mask id="mask31_9653_87970" style="mask-type:luminance" maskUnits="userSpaceOnUse" x="98" y="136"
                      width="1" height="2">
                    <path d="M98.5559 136.561C98.7193 136.561 98.8517 136.693 98.8517 136.857C98.8517 137.02 98.7193 137.153 98.5559 137.153C98.3925 137.153 98.26 137.02 98.26 136.857C98.26 136.693 98.3925 136.561 98.5559 136.561Z"
                          fill="white"/>
                </mask>
                <g mask="url(#mask31_9653_87970)">
                    <path d="M98.26 136.561H98.8517V137.153H98.26V136.561Z" fill="white"/>
                </g>
                <path d="M98.5561 137.156C98.7195 137.156 98.852 137.024 98.852 136.861C98.852 136.697 98.7195 136.565 98.5561 136.565C98.3927 136.565 98.2603 136.697 98.2603 136.861C98.2603 137.024 98.3927 137.156 98.5561 137.156Z"
                      stroke="#738897" stroke-width="0.9" stroke-linecap="round" stroke-linejoin="round"/>
            </g>
        </g>
    </g>
    <defs>
        <clipPath id="clip0_9653_87970">
            <rect width="100" height="126.036" fill="white" transform="translate(74 20)"/>
        </clipPath>
    </defs>
</svg>
